<svg id="SvgjsSvg1000" xmlns="http://www.w3.org/2000/svg" version="1.1" xmlns:xlink="http://www.w3.org/1999/xlink" xmlns:svgjs="http://svgjs.com/svgjs" width="42" height="43" viewBox="0 0 42 43"><title>Ellipse 3 copy</title><desc>Created with Avocode.</desc><defs id="SvgjsDefs1001"></defs><path id="SvgjsPath1007" d="M1279 63.9998C1290.6 63.9998 1300 73.4019 1300 84.9997C1300 96.5978 1290.6 106 1279 106C1267.4 106 1258 96.5978 1258 84.9997C1258 73.40190000000001 1267.4 63.99980000000001 1279 63.99980000000001ZM1260 84.9997C1260 95.4931 1268.51 104 1279 104C1289.49 104 1298 95.4931 1298 84.9997C1298 74.50630000000001 1289.49 65.99980000000001 1279 65.99980000000001C1268.51 65.99980000000001 1260 74.50630000000001 1260 84.9997Z " fill="#ffffff" fill-opacity="1" transform="matrix(1,0,0,1,-1258,-63)"></path><path id="SvgjsPath1008" d="M1279 76.9999C1283.42 76.9999 1287 80.58149999999999 1287 84.99969999999999C1287 89.41819999999998 1283.42 92.9999 1279 92.9999C1274.58 92.9999 1271 89.4182 1271 84.99969999999999C1271 80.58149999999999 1274.58 76.9999 1279 76.9999ZM1273 84.9997C1273 88.3135 1275.69 90.99980000000001 1279 90.99980000000001C1282.31 90.99980000000001 1285 88.3135 1285 84.9997C1285 81.6862 1282.31 78.99990000000001 1279 78.99990000000001C1275.69 78.99990000000001 1273 81.68620000000001 1273 84.9997Z " fill="#ffffff" fill-opacity="1" transform="matrix(1,0,0,1,-1258,-63)"></path><path id="SvgjsPath1009" d="M1290 99.9998C1290 100.68285999999999 1289.9378 101.35137999999999 1289.81876 102H1287.77689C1287.92291 101.3567 1288 100.68725 1288 99.9998C1288 96.46621999999999 1285.96327 93.40822 1283 91.93544999999999V89.74888999999999C1287.09928 91.34849999999999 1290 95.33501999999999 1290 99.9998ZM1268 99.9998C1268 95.33501999999999 1270.90072 91.34849999999999 1275 89.74888999999999V91.93544999999999C1272.03673 93.40820999999998 1270 96.46621999999999 1270 99.9998C1270 100.68724999999999 1270.0771 101.35669999999999 1270.22311 102H1268.18124C1268.0621899999999 101.35138 1268 100.68286 1268 99.9998Z " fill="#ffffff" fill-opacity="1" transform="matrix(1,0,0,1,-1258,-63)"></path></svg>