<svg id="SvgjsSvg1017" xmlns="http://www.w3.org/2000/svg" version="1.1" xmlns:xlink="http://www.w3.org/1999/xlink" xmlns:svgjs="http://svgjs.com/svgjs" width="184" height="71" viewBox="0 0 184 71"><title>Shape 4</title><desc>Created with Avocode.</desc><defs id="SvgjsDefs1018"></defs><path id="SvgjsPath1019" d="M1372.04 1306.39C1372.04 1306.39 1372.51 1309.3000000000002 1376.37 1309.3000000000002C1380.2199999999998 1309.3000000000002 1379.84 1306.3500000000001 1379.84 1306.0800000000002C1379.84 1305.8509000000001 1379.84 1294.38181 1379.84 1290.2191500000001C1378.51136 1290.0774000000001 1377.24308 1289.8357400000002 1376.04 1289.5200000000002C1375.99 1290.9700000000003 1376.1 1291.7300000000002 1374.05 1291.7900000000002C1372.79 1291.8300000000002 1372.31 1289.8000000000002 1372.12 1288.15C1366.1299999999999 1285.49 1362.52 1281.18 1362.4699999999998 1279.48C1362.3999999999999 1276.94 1367.0099999999998 1274.82 1372.4099999999999 1273.99C1372.4799999999998 1271.89 1372.84 1266.54 1373.9499999999998 1266.51C1374.3899999999999 1266.49 1375.3199999999997 1267.53 1375.6699999999998 1269.11C1375.9799999999998 1270.54 1376.0199999999998 1273.1599999999999 1376.0199999999998 1273.6299999999999L1376.4299999999998 1273.62C1383.9999999999998 1273.3899999999999 1388.5399999999997 1275.76 1388.62 1278.56C1388.6899999999998 1280.73 1386.76 1281.85 1385.75 1281.87C1384.74 1281.8999999999999 1383.56 1281.33 1383.55 1281.02C1383.53 1280.42 1385.7 1280.28 1385.6699999999998 1279.31C1385.6299999999999 1277.86 1379.61 1277.22 1375.8999999999999 1277.19C1375.8999999999999 1278.45 1375.8799999999999 1279.97 1375.9099999999999 1280.99C1375.9399999999998 1281.97 1375.9999999999998 1284.5 1376.0299999999997 1286.61C1377.7099999999998 1286.9599999999998 1379.4499999999998 1287.1599999999999 1381.1499999999996 1287.1C1385.1499999999996 1286.99 1394.2799999999997 1285.53 1394.0799999999997 1278.6699999999998C1393.7899999999997 1269.09 1374.8299999999997 1260.2799999999997 1364.6799999999996 1260.59C1360.6799999999996 1260.6999999999998 1358.2799999999995 1261.1299999999999 1358.2899999999995 1261.53C1358.2999999999995 1261.79 1360.2399999999996 1261.8899999999999 1360.2599999999995 1262.3999999999999C1360.2699999999995 1262.9199999999998 1359.1499999999996 1262.9899999999998 1358.4699999999996 1263.0099999999998C1357.2199999999996 1263.0499999999997 1356.2799999999995 1262.5099999999998 1356.2499999999995 1261.7399999999998C1356.2399999999996 1261.1799999999998 1357.4599999999996 1259.4399999999998 1358.1999999999996 1259.1599999999999C1358.7099999999996 1258.9699999999998 1361.1899999999996 1258.0299999999997 1365.3299999999997 1257.8999999999999C1366.8599999999997 1257.86 1369.4599999999998 1258.05 1371.6599999999996 1258.37C1384.4499999999996 1260.27 1397.8699999999997 1270.01 1398.1299999999997 1278.6599999999999C1398.2999999999997 1284.54 1393.2199999999996 1290.05 1383.2999999999997 1290.35C1382.1062799999997 1290.38645 1380.9519999999998 1290.3377899999998 1379.8399999999997 1290.21915C1379.8399999999997 1289.2942099999998 1379.8399999999997 1288.7299999999998 1379.8399999999997 1288.7299999999998L1394.7399999999998 1284.4599999999998C1394.7399999999998 1284.4599999999998 1394.7399999999998 1308.6699999999998 1394.7399999999998 1310.9399999999998C1394.7399999999998 1313.2099999999998 1392.62 1323.9999999999998 1379.8399999999997 1323.9499999999998C1370.3999999999996 1323.9999999999998 1365.2799999999997 1318.7399999999998 1365.2799999999997 1318.7399999999998ZM1395.76 1293.95H1409.96C1409.96 1293.95 1409.96 1307.26 1409.96 1309.3C1409.96 1311.72 1414.8400000000001 1312.3999999999999 1414.8400000000001 1308.75C1414.8400000000001 1304.84 1414.8400000000001 1293.95 1414.8400000000001 1293.95H1429.0200000000002C1429.0200000000002 1293.95 1429.0200000000002 1310.95 1429.0200000000002 1311.56C1429.0200000000002 1312.1799999999998 1428.0800000000002 1323.94 1412.5400000000002 1323.95C1397.0100000000002 1323.96 1395.7600000000002 1312.76 1395.7600000000002 1311.75C1395.7600000000002 1310.74 1395.7600000000002 1293.95 1395.7600000000002 1293.95ZM1454.13 1293.21C1462.6100000000001 1293.41 1463.3700000000001 1303.43 1463.3700000000001 1303.43V1323.45H1449.14C1449.14 1323.45 1449.14 1315.0800000000002 1449.14 1310.28C1449.14 1305.49 1443.8700000000001 1306.55 1444.25 1310.06V1323.45H1429.97V1293.95L1442.18064 1293.95C1442.51545 1291.32058 1443.62373 1288.21647 1445.13 1285.26C1444.65 1284.5 1444.3600000000001 1283.57 1444.3300000000002 1282.47C1444.16 1276.78 1449.0600000000002 1272.63 1449.5700000000002 1272.6200000000001C1449.93 1272.6100000000001 1450.0800000000002 1274.2600000000002 1449.2100000000003 1275.65C1447.9700000000003 1277.63 1446.5200000000002 1280.47 1446.7700000000002 1282.3100000000002C1449.5300000000002 1277.7700000000002 1452.9700000000003 1274.16 1455.3600000000001 1274.0900000000001C1457.0000000000002 1274.0400000000002 1457.97 1275.8500000000001 1458.0500000000002 1278.4C1458.1900000000003 1283.23 1453.7900000000002 1287.77 1449.9900000000002 1287.88C1449.5400000000002 1287.89 1449.0500000000002 1287.8400000000001 1448.5600000000002 1287.71C1447.61651 1290.06111 1446.7598600000001 1292.74801 1446.1266100000003 1295.72664C1447.4473400000002 1294.62696 1450.0230800000002 1293.11389 1454.1300000000003 1293.21ZM1464 1323V1294H1479V1323ZM1514.98 1308.64C1514.8700000000001 1318.42 1506.98 1324 1497.1100000000001 1324C1487.2400000000002 1324 1479.3500000000001 1318.35 1479.2400000000002 1308.64C1479.1300000000003 1298.94 1487.2400000000002 1293.2900000000002 1497.1100000000001 1293.2900000000002C1506.98 1293.2900000000002 1515.1000000000001 1298.8700000000001 1514.98 1308.64ZM1501.15 1308.64C1501.17 1305.97 1499.3600000000001 1304.44 1497.15 1304.44C1494.94 1304.44 1493.13 1305.99 1493.15 1308.64C1493.18 1311.3000000000002 1494.94 1312.8500000000001 1497.15 1312.8500000000001C1499.3600000000001 1312.8500000000001 1501.1200000000001 1311.3200000000002 1501.15 1308.64ZM1529.66 1293.95C1529.66 1293.95 1529.66 1294.0800000000002 1529.66 1297.74C1532.43 1294.42 1533.76 1293.25 1540 1293.29C1540 1296.42 1540 1301.2 1540 1306.97C1532.86 1303.84 1530.04 1309.31 1530.04 1311.07C1530.04 1312.84 1530.04 1323.45 1530.04 1323.45H1515.6599999999999V1293.95ZM1372.37 1277.34C1368.57 1277.62 1363.7099999999998 1278.33 1363.75 1279.6499999999999C1363.8 1281.04 1367.37 1283.7199999999998 1372.07 1285.4599999999998C1372.29 1282.61 1372.35 1279.59 1372.37 1277.34ZM1401.03 1273.49C1401.68 1273.47 1402.62 1275.03 1402.6399999999999 1276.01C1402.6699999999998 1276.99 1402.9099999999999 1282.11 1402.9799999999998 1283.59C1403.0399999999997 1285.06 1402.9999999999998 1286.47 1402.8999999999999 1287.1299999999999C1402.8 1287.78 1402.57 1288.1 1401.4399999999998 1288.1399999999999C1400.32 1288.1699999999998 1399.7999999999997 1287.4999999999998 1399.6999999999998 1286.5099999999998C1399.61 1285.5199999999998 1399.5199999999998 1282.7199999999998 1399.5699999999997 1281.3199999999997C1399.6199999999997 1279.9099999999996 1399.6899999999996 1277.2299999999998 1399.8699999999997 1275.5399999999997C1400.0599999999997 1273.8599999999997 1400.5099999999998 1273.4999999999998 1401.0299999999997 1273.4899999999998ZM1411.21 1257.79C1411.3 1260.52 1407.15 1264.8 1402.58 1264.94C1401.9499999999998 1264.96 1401.1599999999999 1264.8 1400.37 1264.5C1399.9099999999999 1265.23 1399.58 1265.68 1399.1 1265.69C1398.53 1265.71 1397.79 1264.41 1397.77 1263.92C1397.77 1263.74 1397.78 1263.43 1397.95 1262.97C1397.3 1262.3 1396.8600000000001 1261.5 1396.8300000000002 1260.58C1396.7400000000002 1257.74 1400.4800000000002 1254.1399999999999 1405.3400000000001 1254C1407.5700000000002 1253.93 1408.2 1254.87 1408.38 1255.34C1410.3600000000001 1255.31 1411.18 1256.52 1411.21 1257.79ZM1403.6 1262.27C1407.4299999999998 1262.16 1409.1299999999999 1259.41 1409.11 1258.47C1409.09 1257.8700000000001 1408.86 1257.33 1407.9699999999998 1257.3500000000001C1404.9699999999998 1257.44 1402.0499999999997 1261.3500000000001 1401.4899999999998 1262.14C1402.0499999999997 1262.23 1402.7599999999998 1262.3000000000002 1403.5999999999997 1262.2700000000002ZM1400.67 1258.9C1401.3600000000001 1258.1200000000001 1402.0600000000002 1257.51 1402.76 1257.0300000000002C1400.03 1257.2300000000002 1398.95 1259.63 1398.97 1260.2600000000002C1398.98 1260.5500000000002 1399.04 1260.7300000000002 1399.1100000000001 1260.8400000000001C1399.4900000000002 1260.2800000000002 1400.0100000000002 1259.63 1400.67 1258.9ZM1412.88 1273.22C1415.5500000000002 1273.14 1418.91 1273.49 1418.93 1274.34C1418.95 1274.85 1418.68 1275.8899999999999 1417.26 1276.03C1415.57 1276.2 1407.08 1276.56 1407.11 1277.61C1407.1299999999999 1278.1699999999998 1409.6799999999998 1278.29 1412.02 1278.4299999999998C1414.43 1278.58 1418.29 1278.6699999999998 1418.4 1282.56C1418.5 1285.6299999999999 1417.3300000000002 1286.28 1416.8100000000002 1286.52C1416.14 1286.83 1413.91 1287.68 1412.2000000000003 1287.73C1407.0400000000002 1287.89 1404.9200000000003 1284.92 1404.8700000000003 1283.42C1404.8300000000004 1282.0800000000002 1406.2100000000003 1280.89 1408.5200000000004 1280.8300000000002C1410.8400000000004 1280.7600000000002 1414.4200000000005 1281.5900000000001 1414.4500000000005 1282.5400000000002C1414.4700000000005 1283.3100000000002 1412.8900000000006 1283.7100000000003 1412.1900000000005 1283.7300000000002C1409.0300000000004 1283.8200000000002 1409.1900000000005 1282.5400000000002 1407.3700000000006 1282.6000000000001C1406.3300000000006 1282.63 1404.8800000000006 1284.8300000000002 1410.0700000000006 1284.67C1414.7000000000007 1284.54 1416.1000000000006 1283.01 1416.0800000000006 1282.19C1416.0400000000006 1281.1100000000001 1412.7200000000007 1280.5800000000002 1410.8000000000006 1280.48C1408.8800000000006 1280.38 1406.0000000000007 1280.39 1405.0200000000007 1279.77C1404.0300000000007 1279.15 1404.1700000000008 1277.74 1404.5100000000007 1276.58C1405.2200000000007 1274.1499999999999 1410.2000000000007 1273.3 1412.8800000000006 1273.22ZM1422.02 1274.23C1423.82 1274.18 1427.61 1282.3700000000001 1428.25 1282.35C1428.89 1282.33 1428.42 1280.4399999999998 1428.01 1278.34C1427.1 1273.61 1425.68 1271.1699999999998 1427.01 1271.1299999999999C1428 1271.1 1431.24 1274.2299999999998 1431.42 1280.3C1431.51 1283.12 1431.1100000000001 1286.81 1428.5600000000002 1286.8799999999999C1426.13 1286.9599999999998 1423.3700000000001 1279.31 1422.7500000000002 1279.33C1422.4100000000003 1279.34 1422.3800000000003 1284.07 1422.2900000000002 1285.49C1422.2000000000003 1286.92 1421.7000000000003 1287.68 1420.91 1287.7C1419.7 1287.74 1419.18 1286.5800000000002 1419.1100000000001 1284.31C1419.0400000000002 1282.03 1419.7900000000002 1274.3 1422.0200000000002 1274.23ZM1440.4 1278.66C1441.25 1278.64 1442.01 1278.49 1441.93 1279.6000000000001C1441.8600000000001 1280.72 1441.8100000000002 1281.16 1440.92 1281.19L1436.3500000000001 1281.3300000000002C1436.19 1281.8300000000002 1435.8000000000002 1283.14 1435.63 1283.7C1435.41 1284.39 1436.1000000000001 1284.24 1437 1283.98C1437.9 1283.73 1440.33 1283.27 1441.33 1283.24C1442.33 1283.21 1443.08 1284.8 1442.5 1285.35C1441.93 1285.8999999999999 1438.83 1288.51 1435.6 1288.6C1434.2199999999998 1288.6499999999999 1432.34 1287.4399999999998 1432.27 1285.27C1432.24 1284.12 1432.7 1282.58 1433.1399999999999 1281.3799999999999C1433.03 1281.32 1432.9499999999998 1281.1599999999999 1432.8899999999999 1280.81C1432.7399999999998 1280.03 1432.3899999999999 1279.1799999999998 1433.6899999999998 1279.03C1433.7899999999997 1279.02 1433.9299999999998 1279.01 1434.08 1278.99L1435.1499999999999 1276.79C1434.7199999999998 1276.72 1434.34 1276.6299999999999 1434.05 1276.49C1433.26 1276.11 1432.6499999999999 1275.14 1432.6299999999999 1274.71C1432.61 1273.76 1439.58 1273.19 1441.1999999999998 1273.14C1442.9399999999998 1273.0900000000001 1443.4299999999998 1273.42 1443.9799999999998 1274.22C1444.5399999999997 1275.01 1444.7499999999998 1275.57 1444.7499999999998 1275.78C1444.7599999999998 1276 1444.5599999999997 1276.54 1442.4599999999998 1276.6C1441.3899999999999 1276.6299999999999 1439.6499999999999 1276.81 1437.9899999999998 1276.87L1437.2599999999998 1278.8C1438.8799999999997 1278.72 1440.3999999999999 1278.6599999999999 1440.3999999999999 1278.6599999999999ZM1455.67 1277.06C1454.8500000000001 1277.09 1452.49 1279.6399999999999 1450.2 1284.11C1455.9 1283.52 1457.1100000000001 1277.02 1455.67 1277.06ZM1483.55 1279.2C1483.55 1281.45 1481.72 1283.28 1479.47 1283.28C1478.75 1283.28 1478.08 1283.09 1477.49 1282.77C1477.88 1283.59 1478.09 1284.5 1478.09 1285.46C1478.09 1288.97 1475.24 1291.82 1471.73 1291.82C1468.22 1291.82 1465.3700000000001 1288.97 1465.3700000000001 1285.46C1465.3700000000001 1283.78 1466.0200000000002 1282.25 1467.0900000000001 1281.1200000000001C1466.8700000000001 1281.15 1466.66 1281.17 1466.43 1281.17C1464.18 1281.17 1462.3500000000001 1279.3500000000001 1462.3500000000001 1277.0900000000001C1462.3500000000001 1274.8400000000001 1464.18 1273.0200000000002 1466.43 1273.0200000000002C1468.69 1273.0200000000002 1470.51 1274.8400000000001 1470.51 1277.0900000000001C1470.51 1277.95 1470.25 1278.7400000000002 1469.8 1279.4C1470.4099999999999 1279.21 1471.06 1279.1000000000001 1471.73 1279.1000000000001C1473.17 1279.1000000000001 1474.49 1279.5800000000002 1475.56 1280.38C1475.45 1280.0100000000002 1475.3799999999999 1279.6100000000001 1475.3799999999999 1279.2C1475.3799999999999 1276.95 1477.2099999999998 1275.1200000000001 1479.4699999999998 1275.1200000000001C1481.7199999999998 1275.1200000000001 1483.5499999999997 1276.95 1483.5499999999997 1279.2Z " fill="#ff4b64" fill-opacity="1" transform="matrix(1,0,0,1,-1356,-1253)"></path></svg>