<svg id="SvgjsSvg1000" xmlns="http://www.w3.org/2000/svg" version="1.1" xmlns:xlink="http://www.w3.org/1999/xlink" xmlns:svgjs="http://svgjs.com/svgjs" width="170" height="72" viewBox="0 0 170 72"><title>Shape 1</title><desc>Created with Avocode.</desc><defs id="SvgjsDefs1001"></defs><path id="SvgjsPath1007" d="M286.707 1286.05C280.413 1286.52 272.364 1287.68 272.43 1289.87C272.498 1292.1599999999999 278.431 1296.57 286.22 1299.4399999999998C286.583 1294.7499999999998 286.672 1289.7699999999998 286.70700000000005 1286.0499999999997ZM263.669 1262.43C261.596 1262.49 260.03299999999996 1261.5900000000001 259.995 1260.3400000000001C259.967 1259.42 261.992 1256.5500000000002 263.228 1256.0800000000002C264.072 1255.7600000000002 268.184 1254.2100000000003 275.038 1254.0100000000002C277.57800000000003 1253.9300000000003 281.891 1254.2400000000002 285.533 1254.7800000000002C306.735 1257.9 328.991 1273.9700000000003 329.416 1288.2300000000002C329.706 1297.9200000000003 321.279 1307.0200000000002 304.826 1307.5100000000002C300.493 1307.63 296.46000000000004 1307.1000000000001 292.79200000000003 1306.1500000000003C292.713 1308.5300000000004 292.891 1309.7900000000004 289.494 1309.8900000000003C287.41700000000003 1309.9500000000003 286.608 1306.6000000000004 286.302 1303.8800000000003C276.37 1299.5000000000002 270.386 1292.3900000000003 270.302 1289.5800000000004C270.177 1285.4000000000003 277.827 1281.9100000000003 286.774 1280.5300000000004C286.901 1277.0600000000004 287.49 1268.2500000000005 289.329 1268.1900000000005C290.068 1268.1700000000005 291.598 1269.8800000000006 292.176 1272.4800000000005C292.70099999999996 1274.8500000000004 292.756 1279.1700000000005 292.762 1279.9400000000005L293.437 1279.9100000000005C305.992 1279.5400000000006 313.516 1283.4500000000005 313.654 1288.0700000000006C313.761 1291.6500000000005 310.57099999999997 1293.4800000000007 308.897 1293.5300000000007C307.223 1293.5800000000006 305.262 1292.6400000000006 305.246 1292.1200000000006C305.217 1291.1400000000006 308.818 1290.9000000000005 308.77099999999996 1289.3100000000006C308.69899999999996 1286.9100000000005 298.717 1285.8500000000006 292.56699999999995 1285.8100000000006C292.55799999999994 1287.8900000000006 292.53099999999995 1290.3900000000006 292.58199999999994 1292.0700000000006C292.62999999999994 1293.6800000000005 292.73099999999994 1297.8500000000006 292.78099999999995 1301.3400000000006C295.57099999999997 1301.9200000000005 298.44499999999994 1302.2400000000007 301.2629999999999 1302.1600000000005C307.8929999999999 1301.9600000000005 323.0379999999999 1299.5600000000006 322.69999999999993 1288.2500000000005C322.22799999999995 1272.4500000000005 290.7989999999999 1257.9300000000005 273.9649999999999 1258.4300000000005C267.3349999999999 1258.6300000000006 263.35599999999994 1259.3300000000006 263.37499999999994 1259.9800000000005C263.3879999999999 1260.4100000000005 266.6039999999999 1260.5800000000004 266.62999999999994 1261.4300000000005C266.6549999999999 1262.2800000000004 264.80299999999994 1262.4000000000005 263.6689999999999 1262.4300000000005ZM334.218 1279.7C335.30100000000004 1279.67 336.85400000000004 1282.25 336.90200000000004 1283.8700000000001C336.95000000000005 1285.48 337.33900000000006 1293.92 337.45300000000003 1296.3500000000001C337.56600000000003 1298.7900000000002 337.48600000000005 1301.1100000000001 337.32700000000006 1302.19C337.16800000000006 1303.27 336.77400000000006 1303.8 334.91300000000007 1303.8600000000001C333.0520000000001 1303.91 332.18500000000006 1302.8100000000002 332.02700000000004 1301.18C331.869 1299.55 331.73100000000005 1294.93 331.81200000000007 1292.6100000000001C331.8930000000001 1290.3000000000002 332.00300000000004 1285.8700000000001 332.3060000000001 1283.0900000000001C332.61000000000007 1280.3200000000002 333.3580000000001 1279.7300000000002 334.2180000000001 1279.7ZM349.683 1264.78C349.818 1269.29 342.944 1276.35 335.36899999999997 1276.57C334.33099999999996 1276.6 333.02099999999996 1276.34 331.70799999999997 1275.84C330.93899999999996 1277.04 330.39399999999995 1277.79 329.59499999999997 1277.81C328.652 1277.84 327.42199999999997 1275.7 327.39799999999997 1274.8799999999999C327.38899999999995 1274.59 327.41799999999995 1274.08 327.7 1273.32C326.616 1272.23 325.87899999999996 1270.8999999999999 325.834 1269.3799999999999C325.694 1264.6999999999998 331.892 1258.77 339.949 1258.53C343.647 1258.42 344.683 1259.97 344.992 1260.74C348.266 1260.69 349.62100000000004 1262.7 349.683 1264.78ZM337.062 1272.17C343.413 1271.98 346.23400000000004 1267.46 346.188 1265.91C346.158 1264.92 345.772 1264.02 344.30899999999997 1264.0600000000002C339.32599999999996 1264.2100000000003 334.48999999999995 1270.65 333.55699999999996 1271.9500000000003C334.496 1272.1100000000004 335.669 1272.2100000000003 337.06199999999995 1272.1700000000003ZM332.195 1266.61C333.347 1265.33 334.512 1264.32 335.663 1263.54C331.144 1263.86 329.34700000000004 1267.82 329.378 1268.86C329.392 1269.33 329.501 1269.6299999999999 329.616 1269.82C330.24899999999997 1268.8899999999999 331.111 1267.82 332.195 1266.61ZM353.87 1279.27C358.306 1279.1399999999999 363.862 1279.71 363.904 1281.12C363.929 1281.9399999999998 363.495 1283.6599999999999 361.128 1283.8999999999999C358.336 1284.1799999999998 344.256 1284.78 344.308 1286.5099999999998C344.335 1287.4199999999998 348.566 1287.6199999999997 352.447 1287.8599999999997C356.434 1288.0999999999997 362.838 1288.2399999999998 363.029 1294.6599999999996C363.18 1299.7199999999996 361.253 1300.7899999999997 360.385 1301.1999999999996C359.284 1301.7099999999996 355.582 1303.1099999999997 352.745 1303.1899999999996C344.194 1303.4399999999996 340.669 1298.5599999999995 340.594 1296.0799999999997C340.529 1293.8699999999997 342.81 1291.9199999999996 346.646 1291.7999999999997C350.482 1291.6899999999998 356.422 1293.0699999999997 356.469 1294.6299999999997C356.507 1295.8999999999996 353.887 1296.5599999999997 352.728 1296.5899999999997C347.494 1296.7499999999998 347.75100000000003 1294.6299999999997 344.73400000000004 1294.7199999999998C343.01500000000004 1294.7699999999998 340.60400000000004 1298.3999999999999 349.21500000000003 1298.1499999999999C356.88700000000006 1297.9199999999998 359.21200000000005 1295.4099999999999 359.17100000000005 1294.06C359.11800000000005 1292.27 353.61300000000006 1291.3999999999999 350.42900000000003 1291.23C347.244 1291.07 342.46500000000003 1291.09 340.83500000000004 1290.07C339.20400000000006 1289.04 339.43300000000005 1286.72 339.99800000000005 1284.8C341.17800000000005 1280.79 349.43500000000006 1279.3999999999999 353.87000000000006 1279.27ZM369.017 1280.93C372.015 1280.8400000000001 378.298 1294.3500000000001 379.35699999999997 1294.3200000000002C380.41499999999996 1294.2800000000002 379.628 1291.16 378.95899999999995 1287.7100000000003C377.44599999999997 1279.9000000000003 375.08599999999996 1275.8800000000003 377.304 1275.8100000000002C378.94199999999995 1275.7600000000002 384.316 1280.93 384.61499999999995 1290.9400000000003C384.75399999999996 1295.5900000000004 384.09599999999995 1301.6700000000003 379.85999999999996 1301.7900000000002C375.84399999999994 1301.91 371.268 1289.3100000000002 370.2289999999999 1289.3400000000001C369.6689999999999 1289.3500000000001 369.6219999999999 1297.15 369.47299999999996 1299.5000000000002C369.323 1301.8500000000001 368.501 1303.1000000000001 367.18199999999996 1303.1400000000003C365.18399999999997 1303.2000000000003 364.30699999999996 1301.3000000000004 364.19499999999994 1297.5500000000004C364.0829999999999 1293.7900000000004 365.32199999999995 1281.0400000000004 369.01699999999994 1280.9300000000005ZM399.492 1288.24C400.91 1288.19 402.163 1287.96 402.038 1289.79C401.91200000000003 1291.62 401.83500000000004 1292.36 400.356 1292.3999999999999L392.772 1292.6299999999999C392.521 1293.4699999999998 391.873 1295.6299999999999 391.581 1296.54C391.21500000000003 1297.68 392.368 1297.43 393.855 1297.01C395.34200000000004 1296.59 399.37800000000004 1295.83 401.03700000000003 1295.78C402.69500000000005 1295.73 403.934 1298.36 402.98100000000005 1299.26C402.0280000000001 1300.17 396.898 1304.47 391.54300000000006 1304.6299999999999C389.24500000000006 1304.6999999999998 386.1260000000001 1302.6999999999998 386.01900000000006 1299.1299999999999C385.9630000000001 1297.2399999999998 386.7270000000001 1294.6999999999998 387.45900000000006 1292.7199999999998C387.28100000000006 1292.61 387.14500000000004 1292.35 387.0400000000001 1291.7799999999997C386.8010000000001 1290.4999999999998 386.21900000000005 1289.0799999999997 388.37200000000007 1288.8399999999997C388.5440000000001 1288.8199999999997 388.7610000000001 1288.7999999999997 389.01400000000007 1288.7799999999997L390.79100000000005 1285.1399999999996C390.07000000000005 1285.0399999999997 389.44700000000006 1284.8799999999997 388.96600000000007 1284.6499999999996C387.65900000000005 1284.0299999999997 386.64000000000004 1282.4299999999996 386.6190000000001 1281.7199999999996C386.57200000000006 1280.1499999999996 398.1420000000001 1279.2099999999996 400.8200000000001 1279.1299999999997C403.6970000000001 1279.0499999999997 404.5130000000001 1279.5999999999997 405.43200000000013 1280.8999999999996C406.3510000000001 1282.2099999999996 406.6990000000001 1283.1299999999997 406.7090000000001 1283.4899999999996C406.72000000000014 1283.8499999999995 406.38600000000014 1284.7299999999996 402.91000000000014 1284.8399999999995C401.13100000000014 1284.8899999999994 398.25600000000014 1285.1899999999994 395.4970000000001 1285.2899999999995L394.2960000000001 1288.4699999999996C396.98000000000013 1288.3399999999995 399.49200000000013 1288.2399999999996 399.49200000000013 1288.2399999999996ZM406.007 1294.51C405.726 1285.1299999999999 413.853 1278.29 414.692 1278.27C415.291 1278.25 415.544 1280.98 414.10200000000003 1283.27C412.04800000000006 1286.54 409.64000000000004 1291.21 410.04900000000004 1294.25C414.62800000000004 1286.77 420.331 1280.81 424.297 1280.69C427.009 1280.6100000000001 428.627 1283.5900000000001 428.752 1287.8C428.99 1295.77 421.689 1303.25 415.39 1303.43C414.644 1303.46 413.837 1303.3600000000001 413.022 1303.16C410.966 1308.25 409.163 1314.3100000000002 408.117 1321.14C407.932 1322.3500000000001 407.88100000000003 1323.97 406.853 1324C405.825 1324.03 402.443 1321.99 402.279 1316.52C402.134 1311.66 404.225 1305.2 407.332 1299.11C406.539 1297.86 406.061 1296.33 406.007 1294.51ZM424.816 1285.6C423.441 1285.6399999999999 419.529 1289.84 415.736 1297.2099999999998C425.182 1296.2499999999998 427.20099999999996 1285.5299999999997 424.816 1285.6Z " fill="#5f94ff" fill-opacity="1" transform="matrix(1,0,0,1,-259,-1253)"></path></svg>