<svg id="SvgjsSvg1011" xmlns="http://www.w3.org/2000/svg" version="1.1" xmlns:xlink="http://www.w3.org/1999/xlink" xmlns:svgjs="http://svgjs.com/svgjs" width="125" height="71" viewBox="0 0 125 71"><title>Shape 6</title><desc>Created with Avocode.</desc><defs id="SvgjsDefs1012"></defs><path id="SvgjsPath1013" d="M867.269 1266.7C868.353 1268.14 869.997 1269.02 871.552 1269.48C871.543 1268.48 871.562 1266.89 871.6560000000001 1265.46C870.546 1265.51 869.455 1265.64 868.4300000000001 1265.93C867.965 1266.05 867.014 1266.3 867.2690000000001 1266.7ZM914.416 1266.59C914.466 1266.1799999999998 914.3340000000001 1265.1799999999998 914.1320000000001 1265.3799999999999C912.9190000000001 1266.4399999999998 911.7710000000001 1268.1299999999999 911.344 1269.12C911.6260000000001 1269.11 911.738 1269.11 911.99 1269.04C912.74 1268.83 914.236 1267.81 914.416 1266.59ZM885.307 1259.2C884.996 1259.5900000000001 884.585 1260.05 884.842 1260.52C885.336 1259.78 885.9499999999999 1259.1 886.675 1258.56C886.159 1258.53 885.659 1258.86 885.3069999999999 1259.2ZM889.926 1259.02C889.8520000000001 1258.83 889.787 1258.78 889.668 1258.74C888.7 1258.43 887.674 1259.34 886.92 1260.07C886.4979999999999 1260.49 886.2239999999999 1260.81 886.0849999999999 1261.2C887.1679999999999 1261.3300000000002 888.107 1260.97 888.958 1260.51C889.5129999999999 1260.18 890.097 1259.47 889.9259999999999 1259.02ZM985.314 1284.16C985.3159999999999 1282.8700000000001 984.881 1281.8300000000002 983.966 1280.93C981.044 1278.04 978.133 1275.15 975.249 1272.22C974.2810000000001 1271.24 973.172 1270.8 971.799 1270.8C955.9209999999999 1270.81 940.044 1270.81 924.1659999999999 1270.82C923.645 1270.82 923.27 1270.6799999999998 922.8969999999999 1270.31C920.621 1268 918.318 1265.72 916.0239999999999 1263.4299999999998C915.1839999999999 1262.59 914.2369999999999 1262.1499999999999 913.0219999999999 1262.56C912.862 1262.61 912.593 1262.54 912.454 1262.4199999999998C911.4209999999999 1261.59 910.4549999999999 1261.55 909.3919999999999 1262.3799999999999C909.1389999999999 1262.58 908.968 1262.59 908.7049999999999 1262.4299999999998C907.9599999999999 1261.9799999999998 907.146 1261.7899999999997 906.276 1261.8899999999999C905.275 1261.9899999999998 904.262 1262.04 903.279 1262.2299999999998C902.509 1262.3899999999999 901.99 1262.2699999999998 901.387 1261.6999999999998C900.0379999999999 1260.4399999999998 898.6419999999999 1260.6799999999998 897.529 1262.2199999999998C897.465 1262.3099999999997 897.348 1262.4299999999998 897.265 1262.4199999999998C896.718 1262.3799999999999 896.1709999999999 1262.32 895.629 1262.2299999999998C895.315 1262.1799999999998 895.018 1262.0199999999998 894.7040000000001 1261.9799999999998C893.936 1261.8899999999999 893.163 1261.8399999999997 892.341 1261.7599999999998C892.4590000000001 1261.4999999999998 892.562 1261.2899999999997 892.651 1261.0699999999997C893.29 1259.4999999999998 892.9409999999999 1257.8499999999997 891.7189999999999 1257.0599999999997C890.982 1256.5799999999997 890.193 1256.1399999999996 889.367 1255.8599999999997C887.5849999999999 1255.2499999999998 885.875 1255.6599999999996 884.362 1256.6599999999996C883.483 1257.2399999999996 882.776 1258.0799999999997 881.938 1258.8599999999997C881.94252 1258.8599999999997 881.94704 1258.8599999999997 881.95156 1258.8673899999997C881.94564 1258.8644299999996 881.93898 1258.8599999999997 881.9309999999999 1258.8599999999997C881.934 1258.8599999999997 881.9359999999999 1258.8599999999997 881.9379999999999 1258.8599999999997C881.7929999999999 1258.7599999999998 881.6499999999999 1258.6599999999996 881.5089999999999 1258.5499999999997C878.7629999999999 1256.5399999999997 875.7249999999999 1255.1599999999996 872.3969999999999 1254.4299999999998C871.5579999999999 1254.2499999999998 870.703 1254.1399999999999 869.8549999999999 1253.9999999999998C869.0489999999999 1253.9999999999998 868.2429999999999 1253.9999999999998 867.4359999999999 1253.9999999999998C867.1209999999999 1254.0499999999997 866.8069999999999 1254.0999999999997 866.4909999999999 1254.1399999999999C865.0339999999999 1254.29 863.6089999999999 1254.5099999999998 862.5419999999999 1255.6799999999998C861.872 1256.4099999999999 861.4529999999999 1257.2299999999998 861.5849999999999 1258.2399999999998C861.718 1259.2599999999998 862.323 1259.9599999999998 863.2829999999999 1260.2299999999998C864.3989999999999 1260.5499999999997 865.5179999999999 1260.5499999999997 866.4669999999999 1259.6999999999998C866.6119999999999 1259.5699999999997 866.7789999999999 1259.35 866.9269999999999 1259.36C868.0719999999999 1259.4099999999999 869.2139999999999 1259.51 870.3229999999999 1259.59C870.1109999999999 1260.4599999999998 869.9029999999999 1261.1499999999999 869.7849999999999 1261.86C869.7219999999999 1262.2299999999998 869.5869999999999 1262.3999999999999 869.2179999999998 1262.5C868.0519999999998 1262.83 866.9269999999998 1263.26 865.9739999999998 1264.05C864.6849999999998 1265.11 864.2389999999998 1266.53 864.9229999999998 1267.78C865.3339999999997 1268.53 865.8249999999998 1269.27 866.4259999999998 1269.87C875.4719999999999 1278.9299999999998 884.5429999999998 1287.9599999999998 893.6069999999999 1297C893.7419999999998 1297.14 893.8609999999999 1297.29 893.9919999999998 1297.44C893.8519999999999 1297.6000000000001 893.7639999999999 1297.7 893.6649999999998 1297.8C891.3289999999998 1300.1399999999999 889.0019999999998 1302.48 886.6509999999998 1304.79C885.7689999999999 1305.6599999999999 885.3009999999998 1306.6599999999999 885.3389999999998 1307.9099999999999C885.3689999999998 1308.8799999999999 885.3449999999998 1309.84 885.3449999999998 1310.81C885.3459999999998 1314.23 885.3569999999997 1317.6399999999999 885.3409999999998 1321.06C885.3339999999998 1322.76 886.7879999999998 1324.02 888.2769999999998 1324C892.7079999999999 1323.93 897.1419999999998 1323.95 901.5749999999998 1323.99C902.8209999999998 1324.01 903.7849999999999 1323.58 904.6369999999998 1322.72C906.9019999999998 1320.43 909.1869999999998 1318.16 911.4649999999998 1315.88C911.6309999999999 1315.72 911.8079999999998 1315.5600000000002 911.9969999999998 1315.39C912.1979999999999 1315.5800000000002 912.3629999999998 1315.72 912.5189999999999 1315.88C914.8109999999999 1318.17 917.1069999999999 1320.46 919.3919999999999 1322.75C920.212 1323.58 921.1469999999999 1323.99 922.348 1323.99C938.9509999999999 1323.97 955.554 1323.97 972.1569999999999 1323.99C973.358 1323.99 974.295 1323.58 975.1159999999999 1322.76C978.1149999999999 1319.75 981.1179999999998 1316.75 984.1269999999998 1313.75C984.9249999999998 1312.96 985.3099999999998 1312.02 985.3089999999999 1310.89C985.3019999999999 1301.98 985.2979999999999 1293.0700000000002 985.3139999999999 1284.16ZM910.39 1263.76C910.576 1263.51 911.141 1263.06 911.138 1263.48C911.009 1265.15 909.464 1266.31 909.539 1268.14C909.98 1267.2 911.912 1265.0500000000002 913.513 1264.1200000000001C913.7710000000001 1264.0100000000002 914.044 1263.93 914.312 1264.1000000000001C915.139 1264.64 915.496 1265.5400000000002 915.473 1266.4900000000002C915.396 1268.2700000000002 913.925 1269.8900000000003 912.376 1270.6400000000003C911.4639999999999 1271.0400000000004 911.044 1271.0600000000004 910.364 1270.9700000000003C909.6410000000001 1272.9100000000003 909.126 1274.8900000000003 908.765 1276.9500000000003C908.721 1277.1300000000003 908.352 1276.9200000000003 908.197 1276.8500000000004C907.732 1276.5600000000004 907.292 1276.1000000000004 907.267 1275.5600000000004C907.3960000000001 1273.4200000000003 908.0160000000001 1271.4600000000005 908.738 1269.5600000000004C907.629 1267.4700000000005 909.048 1265.3600000000004 910.3900000000001 1263.7600000000004ZM902.519 1266.8C902.545 1266.44 902.932 1266.49 903.164 1266.4099999999999C903.422 1266.0299999999997 903.525 1265.59 903.706 1265.1799999999998C903.267 1264.9499999999998 902.597 1265.0499999999997 902.469 1264.4299999999998C902.416 1264.2799999999997 902.365 1264.1 902.57 1264.07C904.094 1263.84 906.267 1263.4099999999999 907.292 1263.55C907.432 1263.57 907.538 1263.6499999999999 907.783 1263.84C908.029 1264.03 908.463 1264.62 908.352 1264.84C907.9639999999999 1265.28 907.302 1265.1799999999998 906.751 1265.23C906.2339999999999 1265.27 905.668 1265.31 905.1 1265.26C904.98 1265.6 904.868 1265.99 904.758 1266.33C905.433 1266.3 906.313 1266.21 906.984 1266.4399999999998C907.125 1266.5199999999998 907.1890000000001 1267.08 907.0350000000001 1267.2599999999998C906.503 1267.6799999999998 905.1880000000001 1267.4899999999998 904.3030000000001 1267.6199999999997C904.0450000000001 1268.0599999999997 903.9130000000001 1268.4999999999998 903.8100000000001 1269.0199999999998C904.894 1269.0399999999997 905.9010000000001 1268.5799999999997 906.984 1268.7099999999998C907.125 1268.7299999999998 907.529 1269.37 907.3190000000001 1269.5799999999997C906.1060000000001 1270.4899999999998 904.791 1271.3899999999996 903.19 1271.0799999999997C902.69 1270.9599999999998 902.351 1270.2099999999998 902.157 1269.5099999999998C901.998 1268.7099999999998 902.416 1268.0699999999997 902.657 1267.4499999999998C902.6750000000001 1267.1599999999999 902.4970000000001 1267.0199999999998 902.519 1266.7999999999997ZM895.499 1268.42C895.596 1266.95 895.836 1265.5600000000002 896.455 1264.3000000000002C896.5780000000001 1264.0700000000002 896.836 1263.9 897.0490000000001 1264.0700000000002C898.3910000000001 1265.2600000000002 899.0360000000001 1266.88 900.1460000000001 1268.2400000000002C900.3520000000001 1267.9900000000002 900.248 1267.5700000000002 900.2230000000001 1267.2600000000002C900.0930000000001 1265.7700000000002 899.5770000000001 1264.4100000000003 899.2420000000001 1262.9900000000002C899.1740000000001 1262.7700000000002 899.143 1262.3800000000003 899.4230000000001 1262.4200000000003C900.0410000000002 1262.5800000000004 900.4290000000001 1263.2500000000002 900.7640000000001 1263.7600000000002C901.6930000000001 1265.3100000000002 902.1070000000001 1267.4700000000003 901.4610000000001 1269.3300000000002C901.2030000000001 1269.7900000000002 900.7380000000002 1270.2300000000002 900.1720000000001 1270.3000000000002C899.5940000000002 1270.3400000000001 899.3190000000002 1269.8500000000001 899.0100000000001 1269.3500000000001C898.3980000000001 1268.3600000000001 897.8360000000001 1267.41 897.2810000000001 1266.3400000000001C897.2070000000001 1266.2300000000002 897.1260000000001 1266.4700000000003 897.1260000000001 1266.5900000000001C897.0780000000001 1267.92 897.1260000000001 1269.3000000000002 896.7650000000001 1270.4900000000002C896.6740000000001 1270.7100000000003 896.3520000000001 1270.7400000000002 896.1200000000001 1270.6600000000003C895.2940000000001 1270.2500000000002 895.4480000000001 1269.2100000000003 895.4990000000001 1268.4200000000003ZM894.314 1263.66C894.675 1263.72 895.01 1263.76 895.2679999999999 1264.02C895.3839999999999 1264.22 895.1419999999999 1264.6399999999999 894.882 1264.71C893.074 1265.15 891.01 1264.95 889.256 1265.49C889.158 1265.54 889.126 1265.56 889.178 1265.64C890.829 1266.3100000000002 892.972 1265.7700000000002 894.468 1266.7800000000002C895.1129999999999 1267.3200000000002 895.159 1268.15 895.036 1268.9100000000003C894.7779999999999 1270.1200000000003 893.497 1270.5000000000002 892.429 1270.6600000000003C890.861 1270.9100000000003 889.178 1270.4300000000003 888.3009999999999 1269.0200000000002C888.0939999999999 1268.5300000000002 888.3359999999999 1267.9000000000003 888.6349999999999 1267.7000000000003C889.6939999999998 1266.9800000000002 891.2929999999999 1267.3400000000004 892.4289999999999 1267.6500000000003C892.7549999999999 1267.7500000000002 893.2389999999998 1267.9000000000003 893.0999999999999 1268.1700000000003C892.6619999999999 1268.6300000000003 891.771 1268.7400000000002 891.3709999999999 1268.6600000000003C890.5709999999999 1268.5300000000002 889.4869999999999 1267.5700000000004 888.8419999999999 1268.5500000000004C888.7389999999999 1268.7700000000004 889.0619999999999 1269.0000000000005 889.2779999999999 1269.0600000000004C890.8789999999999 1269.3900000000003 892.3269999999999 1268.9900000000005 893.694 1268.4200000000003C893.9159999999999 1268.3100000000004 894.082 1268.0600000000004 893.9 1267.8300000000004C892.429 1266.6700000000003 890.2099999999999 1267.1400000000003 888.481 1266.7500000000005C888.223 1266.6700000000005 887.933 1266.4100000000005 887.862 1266.1600000000005C887.836 1265.7700000000004 887.8199999999999 1265.2200000000005 888.0939999999999 1264.9200000000005C889.6679999999999 1263.4000000000005 892.1289999999999 1263.2900000000004 894.314 1263.6600000000005ZM884.3 1268.19C882.5469999999999 1271.39 878.627 1272.3 875.4269999999999 1271.9C874.627 1271.8000000000002 874.0779999999999 1271.67 873.617 1271.5900000000001C873.579 1271.95 873.5649999999999 1272.42 873.127 1272.6000000000001C872.7719999999999 1272.67 872.304 1272.72 872.1719999999999 1272.6000000000001C871.7579999999999 1272.1100000000001 871.6589999999999 1271.5000000000002 871.6039999999999 1270.8700000000001C871.127 1270.64 870.6919999999999 1270.4 870.262 1270.1200000000001C868.9459999999999 1269.2700000000002 867.031 1267.8200000000002 866.727 1266.6200000000001C866.499 1265.2700000000002 869.168 1264.41 869.848 1264.2500000000002C870.53 1264.0900000000001 871.6809999999999 1263.8600000000001 871.6809999999999 1263.8600000000001C871.7549999999999 1263.2 871.8309999999999 1262.42 871.9129999999999 1261.7C871.9809999999999 1261.1100000000001 872.0429999999999 1260.54 872.43 1260.1000000000001C872.92 1260.21 873.246 1260.5000000000002 873.3889999999999 1261.17C873.5299999999999 1261.8400000000001 873.5449999999998 1262.95 873.5679999999999 1263.69C875.6849999999998 1263.74 877.8479999999998 1263.74 879.4229999999999 1265.0800000000002C879.7719999999999 1265.4600000000003 880.0419999999999 1265.9 879.8629999999999 1266.4700000000003C879.6039999999999 1267.0600000000002 879.0609999999999 1267.5700000000002 878.4169999999999 1267.6800000000003C877.997 1267.7100000000003 877.3679999999999 1267.5200000000002 877.5389999999999 1267.3200000000004C877.8479999999998 1267.0300000000004 878.6739999999999 1266.4700000000005 878.3909999999998 1266.2900000000004C876.9189999999999 1265.6400000000003 874.6969999999999 1265.2900000000004 873.5489999999999 1265.3600000000004C873.5789999999998 1266.4100000000003 873.6099999999999 1268.4500000000003 873.5909999999999 1270.1000000000004C874.1429999999999 1270.3000000000004 874.6749999999998 1270.4000000000003 875.2949999999998 1270.4100000000003C878.0819999999999 1270.4400000000003 881.6579999999999 1270.0300000000002 882.5709999999998 1267.3900000000003C883.2689999999998 1264.6600000000003 881.2549999999998 1262.4000000000003 879.1389999999998 1260.8800000000003C875.1389999999998 1258.0000000000002 870.1079999999998 1256.4200000000003 864.9989999999998 1257.1700000000003C864.8169999999998 1257.2700000000002 864.5849999999998 1257.2200000000003 864.4309999999998 1257.3700000000003C864.7149999999998 1257.5800000000004 865.2299999999998 1257.4500000000003 865.4119999999998 1257.8400000000004C865.3859999999999 1258.0200000000004 865.1529999999998 1258.0200000000004 865.0239999999998 1258.0900000000004C864.4829999999997 1258.0900000000004 863.9649999999998 1258.1700000000003 863.6299999999998 1257.7600000000004C863.7339999999998 1257.1400000000006 864.0429999999998 1256.4500000000005 864.7149999999998 1256.2100000000005C869.9789999999998 1254.7000000000005 875.3889999999998 1256.5500000000004 879.5779999999997 1259.1800000000005C880.0809999999998 1259.4900000000005 881.0329999999998 1260.2700000000004 881.3009999999997 1260.5000000000005C883.2169999999998 1262.1500000000005 885.7709999999997 1265.1300000000006 884.2999999999997 1268.1900000000005ZM884.61 1262.83C884.171 1262.55 884.2230000000001 1262 884.275 1261.6C883.8109999999999 1261.1599999999999 883.656 1260.57 883.784 1259.9199999999998C884.3 1258.3 886.029 1257.35 887.604 1257.06C888.3770000000001 1256.96 889.152 1257.1699999999998 889.6410000000001 1257.81C890.133 1257.81 890.623 1258.09 890.8550000000001 1258.56C891.2680000000001 1259.74 890.2350000000001 1260.62 889.3850000000001 1261.34C888.3010000000002 1262.1899999999998 886.9060000000001 1262.86 885.4610000000001 1262.29C885.2080000000001 1262.51 885.1000000000001 1263.09 884.6100000000001 1262.83ZM887.139 1270.61C887.094 1270.82 886.52 1270.8999999999999 886.21 1270.82C885.436 1270.6599999999999 885.5300000000001 1269.82 885.514 1269.2C885.471 1267.52 885.565 1265.8 885.797 1264.25C885.8530000000001 1264.04 885.95 1263.61 886.236 1263.63C886.648 1263.74 886.9159999999999 1264.25 886.934 1264.46C887.088 1266.47 887.295 1268.66 887.139 1270.6100000000001ZM936.476 1319.51C936.476 1320.47 936.269 1320.69 935.316 1320.69C931.0640000000001 1320.7 926.812 1320.69 922.5600000000001 1320.7C921.8710000000001 1320.7 921.3320000000001 1320.45 920.8470000000001 1319.96C918.224 1317.32 915.5840000000001 1314.69 912.9490000000001 1312.06C912.1410000000001 1311.25 911.849 1311.25 911.0580000000001 1312.04C908.4230000000001 1314.67 905.7810000000001 1317.3 903.1610000000001 1319.94C902.6410000000001 1320.47 902.062 1320.7 901.3330000000001 1320.7C897.142 1320.69 894.1590000000001 1320.69 889.9680000000001 1320.69C888.9050000000001 1320.69 888.72 1320.5 888.719 1319.42C888.7180000000001 1317.3100000000002 888.719 1316.4 888.719 1314.29C888.719 1312.2 888.74 1310.1 888.7070000000001 1308.01C888.6960000000001 1307.29 888.9330000000001 1306.75 889.4390000000001 1306.25C892.0200000000001 1303.7 894.5830000000001 1301.14 897.1510000000001 1298.58C897.3080000000001 1298.4299999999998 897.47 1298.27 897.614 1298.11C898.053 1297.6 898.0550000000001 1297.2199999999998 897.587 1296.7299999999998C896.973 1296.0899999999997 896.337 1295.4799999999998 895.71 1294.8499999999997C893.629 1292.7699999999998 891.556 1290.6899999999996 889.462 1288.6299999999997C888.943 1288.1099999999997 888.701 1287.5599999999997 888.706 1286.8099999999997C888.7330000000001 1282.5899999999997 888.718 1279.5699999999997 888.72 1275.3499999999997C888.72 1274.3699999999997 888.912 1274.1799999999996 889.8860000000001 1274.1799999999996C893.917 1274.1799999999996 896.738 1274.1899999999996 900.768 1274.1699999999996C901.534 1274.1599999999996 902.1120000000001 1274.3999999999996 902.645 1274.9399999999996C905.4399999999999 1277.7499999999995 908.254 1280.5499999999995 911.062 1283.3499999999997C911.865 1284.1499999999996 912.129 1284.1499999999996 912.947 1283.3299999999997C915.712 1280.5699999999997 918.487 1277.8199999999997 921.231 1275.0399999999997C921.842 1274.4199999999998 922.4929999999999 1274.1499999999996 923.37 1274.1599999999996C927.34 1274.1999999999996 931.3100000000001 1274.1799999999996 935.279 1274.1799999999996C936.292 1274.1799999999996 936.476 1274.3599999999997 936.477 1275.3699999999997C936.478 1279.5999999999997 936.4639999999999 1282.6099999999997 936.49 1286.8399999999997C936.494 1287.5599999999997 936.259 1288.0999999999997 935.7570000000001 1288.5999999999997C933.139 1291.1999999999996 930.537 1293.7999999999997 927.9290000000001 1296.4099999999996C927.0290000000001 1297.3099999999997 927.027 1297.5399999999997 927.9110000000001 1298.4299999999996C930.5050000000001 1301.0199999999995 933.091 1303.6099999999997 935.6980000000001 1306.1899999999996C936.2330000000001 1306.7099999999996 936.4960000000001 1307.2699999999995 936.4910000000001 1308.0499999999995C936.4620000000001 1312.2699999999995 936.4780000000001 1315.2899999999995 936.4760000000001 1319.5099999999995ZM982.543 1310.1C982.544 1310.8 982.3100000000001 1311.32 981.82 1311.8C978.888 1314.71 976.575 1317.02 973.6650000000001 1319.95C973.1970000000001 1320.42 972.696 1320.66 972.013 1320.66C961.313 1320.64 951.823 1320.65 941.124 1320.65C940.083 1320.65 939.905 1320.47 939.905 1319.41C939.904 1311.67 939.905 1305.13 939.905 1297.39C939.904 1289.7 939.904 1283.23 939.904 1275.5500000000002C939.904 1274.3500000000001 940.079 1274.1800000000003 941.256 1274.1800000000003C951.855 1274.1800000000003 961.245 1274.1800000000003 971.843 1274.1600000000003C972.6179999999999 1274.1600000000003 973.1899999999999 1274.4200000000003 973.7149999999999 1274.9500000000003C976.6129999999999 1277.8600000000004 978.9129999999999 1280.1600000000003 981.829 1283.0500000000002C982.318 1283.5300000000002 982.544 1284.0600000000002 982.543 1284.7600000000002C982.527 1293.6100000000001 982.527 1301.2500000000002 982.543 1310.1000000000001Z " fill="#a0e51a" fill-opacity="1" transform="matrix(1,0,0,1,-861,-1254)"></path></svg>