<svg id="SvgjsSvg1008" xmlns="http://www.w3.org/2000/svg" version="1.1" xmlns:xlink="http://www.w3.org/1999/xlink" xmlns:svgjs="http://svgjs.com/svgjs" width="217" height="42" viewBox="0 0 217 42"><title>Shape 7</title><desc>Created with Avocode.</desc><defs id="SvgjsDefs1009"></defs><path id="SvgjsPath1010" d="M541.571 1308.83C541.605 1308.1899999999998 541.677 1308.1699999999998 543.865 1307.8999999999999L545.953 1307.6499999999999L546.043 1307.1499999999999C546.15 1306.55 546.144 1294.8899999999999 546.033 1287.9099999999999L545.955 1283.0099999999998L545.383 1282.8399999999997C545.067 1282.7499999999998 544.128 1282.6299999999997 543.297 1282.5699999999997C541.755 1282.4599999999998 541.567 1282.3899999999996 541.563 1281.8999999999996C541.563 1281.6899999999996 541.923 1281.6799999999996 547.402 1281.6799999999996C556.113 1281.6799999999996 558.6160000000001 1281.9499999999996 560.9870000000001 1283.1599999999996C562.7330000000001 1284.0599999999997 563.9280000000001 1285.6199999999997 564.0730000000001 1287.1999999999996C564.205 1288.6399999999996 563.5670000000001 1290.7599999999995 562.5670000000001 1292.1999999999996C561.1300000000001 1294.2599999999995 558.0930000000001 1296.1699999999996 555.0000000000001 1296.9599999999996C553.1880000000001 1297.4199999999996 552.8980000000001 1297.4499999999996 552.9000000000001 1297.1799999999996C552.9030000000001 1296.5499999999995 553.0390000000001 1296.4299999999996 554.2420000000001 1295.9599999999996C555.743 1295.3699999999997 556.738 1294.7399999999996 557.528 1293.8699999999997C558.82 1292.4499999999996 559.323 1290.9099999999996 559.2420000000001 1288.5899999999997C559.196 1287.2799999999997 559.153 1287.0599999999997 558.787 1286.2899999999997C557.787 1284.1799999999998 555.659 1283.0599999999997 552.2610000000001 1282.8599999999997L550.8890000000001 1282.7699999999998L550.7790000000001 1283.3299999999997C550.6550000000001 1283.9499999999996 550.6750000000001 1303.3599999999997 550.8030000000001 1305.9099999999996C550.8810000000001 1307.4599999999996 550.9030000000001 1307.5699999999997 551.1600000000001 1307.6399999999996C551.311 1307.6799999999996 552.4090000000001 1307.7999999999997 553.6000000000001 1307.9099999999996C554.7900000000002 1308.0199999999995 555.8360000000001 1308.1299999999997 555.9240000000001 1308.1599999999996C556.0120000000001 1308.1799999999996 556.0840000000001 1308.3499999999997 556.0840000000001 1308.5299999999995V1308.8399999999995H550.3710000000001C547.229 1308.8399999999995 543.9620000000001 1308.8799999999994 543.1100000000001 1308.9299999999994C541.8240000000002 1308.9899999999993 541.5630000000001 1308.9799999999993 541.5700000000002 1308.8299999999995ZM652.397 1309.27C650.214 1307.51 646.325 1303.3899999999999 641.345 1297.55C640.802 1296.9099999999999 640.307 1296.3899999999999 640.245 1296.3899999999999C639.818 1296.3899999999999 634.705 1304.1 633.294 1306.87L632.9 1307.6399999999999L634.1329999999999 1307.84C634.8109999999999 1307.9599999999998 635.5459999999999 1308.07 635.7649999999999 1308.11C636.1389999999999 1308.1599999999999 636.3169999999999 1308.36 636.3169999999999 1308.6999999999998C636.3169999999999 1308.8099999999997 635.0039999999999 1308.85 631.1769999999999 1308.86L626.0379999999999 1308.8799999999999L626.1189999999999 1308.61C626.2499999999999 1308.1799999999998 626.4429999999999 1308.08 627.4319999999999 1307.9199999999998C628.7419999999998 1307.7199999999998 629.0869999999999 1307.5199999999998 630.1839999999999 1306.36C631.4939999999998 1304.9699999999998 637.8229999999999 1297.11 639.1619999999998 1295.2099999999998C639.2479999999998 1295.0799999999997 639.0359999999998 1294.7499999999998 638.3909999999998 1293.9899999999998C637.9019999999998 1293.4199999999998 636.1599999999999 1291.1699999999998 634.5189999999999 1288.9999999999998C632.8769999999998 1286.8299999999997 631.1389999999999 1284.6099999999997 630.6559999999998 1284.0599999999997C629.8209999999998 1283.1099999999997 629.7349999999998 1283.0499999999997 628.9569999999999 1282.8499999999997C628.5059999999999 1282.7299999999998 627.9229999999999 1282.6299999999997 627.6609999999998 1282.6299999999997C627.2409999999999 1282.6199999999997 627.1859999999998 1282.5799999999997 627.1859999999998 1282.2999999999997C627.1859999999998 1282.1299999999997 627.1719999999998 1281.9699999999998 627.1519999999998 1281.9399999999998C627.1319999999998 1281.9199999999998 629.9019999999998 1281.86 633.3019999999998 1281.82C639.0799999999998 1281.76 639.4839999999998 1281.76 639.4829999999998 1281.97C639.4829999999998 1282.3700000000001 639.2859999999998 1282.46 637.9589999999998 1282.67C637.2249999999998 1282.78 636.4669999999999 1282.92 636.2759999999998 1282.97L635.9269999999998 1283.06L636.7929999999998 1284.37C638.5159999999997 1286.9799999999998 641.9869999999997 1291.7399999999998 642.1739999999998 1291.75C642.4419999999998 1291.77 646.9359999999997 1285.49 647.9839999999997 1283.64C648.3639999999997 1282.97 648.3359999999997 1282.95 646.6909999999997 1282.66C645.5449999999997 1282.47 645.4619999999996 1282.43 645.4029999999997 1282.13C645.3659999999996 1281.95 645.3489999999997 1281.8000000000002 645.3609999999996 1281.7900000000002C645.3719999999996 1281.7700000000002 647.4809999999997 1281.7500000000002 650.0449999999996 1281.7200000000003L654.7089999999996 1281.6800000000003L654.6269999999996 1282.0500000000002C654.5809999999996 1282.2600000000002 654.5379999999996 1282.4400000000003 654.5269999999996 1282.4500000000003C654.5169999999996 1282.4600000000003 653.9429999999996 1282.5900000000004 653.2519999999996 1282.7300000000002C652.0339999999997 1282.9700000000003 651.9739999999996 1283.0000000000002 651.3079999999997 1283.6500000000003C650.5179999999997 1284.4100000000003 647.1529999999997 1288.1600000000003 644.7259999999997 1290.9900000000002L643.0729999999996 1292.9200000000003L644.0629999999996 1294.1800000000003C645.0459999999996 1295.4200000000003 645.4809999999997 1296.0200000000002 650.0739999999996 1302.4000000000003C652.0309999999996 1305.1200000000003 654.9329999999997 1309.0600000000004 655.4959999999996 1309.7600000000002C655.5949999999997 1309.88 655.3619999999996 1309.9100000000003 654.4079999999997 1309.9100000000003H653.1939999999996L652.3949999999996 1309.2700000000002ZM743.288 1298.01L741.479 1296.02L739.649 1296.09C738.642 1296.1299999999999 737.772 1296.2099999999998 737.717 1296.26C737.5939999999999 1296.37 737.754 1307.03 737.883 1307.23C738.005 1307.42 738.6990000000001 1307.56 740.491 1307.73C741.967 1307.88 742.031 1307.9 742.107 1308.19C742.149 1308.3600000000001 742.168 1308.52 742.149 1308.54C742.125 1308.56 739.086 1308.59 735.389 1308.62L728.667 1308.6599999999999C728.65 1308.4199999999998 728.671 1308.2099999999998 728.825 1308.0099999999998C728.912 1307.9499999999998 729.8620000000001 1307.7999999999997 730.936 1307.6799999999998C732.0260000000001 1307.56 732.9290000000001 1307.3999999999999 732.9780000000001 1307.32C733.0260000000001 1307.24 733.1070000000001 1306.7 733.158 1306.11C733.26 1304.9199999999998 733.116 1283.84 733 1283.28C732.91 1282.84 732.473 1282.7 730.876 1282.61C728.741 1282.4799999999998 728.667 1282.4599999999998 728.667 1282.04V1281.68H733.243C745.971 1281.69 748.8140000000001 1282.1200000000001 750.8100000000001 1284.3C752.0540000000001 1285.6599999999999 752.1830000000001 1287.45 751.181 1289.47C750.4350000000001 1290.98 748.465 1293.01 746.8820000000001 1293.9L746.2270000000001 1294.2800000000002L746.6830000000001 1295.0500000000002C747.3360000000001 1296.16 750.9500000000002 1301.4900000000002 752.4410000000001 1303.5500000000002C753.9450000000002 1305.6200000000001 754.7360000000001 1306.63 756.1410000000002 1308.2400000000002L757.1870000000002 1309.4500000000003L756.3920000000003 1309.5800000000004C755.9550000000003 1309.6600000000003 755.5630000000003 1309.7200000000005 755.5230000000003 1309.7200000000005C755.4810000000002 1309.7200000000005 755.0040000000002 1309.3900000000006 754.4600000000003 1308.9900000000005C752.3330000000003 1307.4400000000005 747.8030000000002 1302.9800000000005 743.2880000000002 1298.0100000000004ZM741.09 1294.62C742.846 1294.28 744.0210000000001 1293.6899999999998 745.15 1292.58C746.1859999999999 1291.57 746.634 1290.76 746.923 1289.36C747.518 1286.4799999999998 745.609 1284.09 741.972 1283.1699999999998C740.583 1282.82 738.05 1282.58 737.846 1282.7799999999997C737.73 1282.8999999999996 737.681 1284.4399999999998 737.65 1288.9899999999998L737.608 1295.0399999999997L738.723 1294.9599999999998C739.336 1294.9099999999999 740.4019999999999 1294.7599999999998 741.091 1294.62ZM674.559 1308.48C674.625 1308.04 674.5079999999999 1308.08 676.6179999999999 1307.76L678.0759999999999 1307.53L678.5479999999999 1306.6499999999999C679.4509999999999 1304.9799999999998 681.3469999999999 1300.3799999999999 685.2049999999999 1290.4999999999998C686.7769999999999 1286.4799999999998 688.0519999999999 1283.0299999999997 687.9889999999999 1282.9599999999998C687.9549999999999 1282.9299999999998 687.3709999999999 1282.8199999999997 686.6829999999999 1282.7199999999998C684.7679999999999 1282.4299999999998 684.8619999999999 1282.4599999999998 684.8619999999999 1282.0799999999997V1281.7299999999998L690.9029999999999 1281.6899999999998C696.473 1281.6599999999999 696.9379999999999 1281.6699999999998 696.8639999999999 1281.86C696.8179999999999 1281.9699999999998 696.7839999999999 1282.1399999999999 696.7839999999999 1282.2199999999998C696.7839999999999 1282.3199999999997 696.2729999999999 1282.4599999999998 695.3229999999999 1282.6C694.5189999999999 1282.73 693.8339999999998 1282.87 693.7989999999999 1282.9299999999998C693.7649999999999 1282.9899999999998 694.4169999999999 1284.9399999999998 695.2499999999999 1287.2699999999998C698.2879999999999 1295.7499999999998 700.8599999999999 1302.2699999999998 702.6139999999999 1305.9099999999999L703.3449999999999 1307.4399999999998L703.9649999999999 1307.58C704.5559999999999 1307.72 706.256 1307.96 706.694 1307.97C706.8249999999999 1307.97 706.9219999999999 1308.1000000000001 706.9559999999999 1308.33L707.0089999999999 1308.6899999999998L700.3429999999998 1308.7499999999998C696.6759999999998 1308.7799999999997 693.6689999999999 1308.7999999999997 693.6599999999999 1308.7899999999997C693.6489999999999 1308.7899999999997 693.6699999999998 1308.6099999999997 693.7019999999999 1308.3999999999996L693.7619999999998 1308.0099999999995L695.4939999999998 1307.7999999999995C697.6839999999999 1307.5299999999995 697.8369999999998 1307.4899999999996 697.7209999999998 1307.2299999999996C697.5769999999998 1306.9099999999996 696.4749999999998 1303.8299999999995 695.6959999999998 1301.5799999999995C695.3029999999998 1300.4499999999994 694.6949999999998 1298.7699999999995 694.3449999999998 1297.8599999999994L693.7079999999999 1296.1999999999994H692.9949999999999C691.0179999999999 1296.1999999999994 684.5399999999998 1296.5999999999995 684.4089999999999 1296.7299999999993C684.1329999999999 1296.9999999999993 682.3559999999999 1303.3299999999992 681.8839999999999 1305.7199999999993C681.7069999999999 1306.6099999999994 681.5619999999999 1307.3699999999994 681.5619999999999 1307.3899999999994C681.5619999999999 1307.4899999999993 682.1699999999998 1307.6199999999994 683.5909999999999 1307.8199999999995C685.0239999999999 1308.0299999999995 685.0499999999998 1308.0399999999995 685.0899999999999 1308.3799999999994L685.132 1308.7199999999993H680.462C677.894 1308.7199999999993 675.502 1308.7599999999993 675.146 1308.7999999999993L674.5 1308.8799999999992L674.558 1308.479999999999ZM693.233 1294.76C693.1659999999999 1294.58 693.024 1294.28 692.9179999999999 1294.07C692.7359999999999 1293.73 691.1169999999998 1289.09 689.8539999999999 1285.31C689.545 1284.3799999999999 689.2729999999999 1283.6 689.2499999999999 1283.58C689.0979999999998 1283.4299999999998 684.9889999999999 1294.29 684.9889999999999 1294.83C684.9889999999999 1294.8899999999999 686.43 1294.96 688.1909999999999 1294.98C689.9529999999999 1295 691.8349999999999 1295.03 692.3739999999999 1295.04L693.353 1295.07L693.232 1294.76ZM601.729 1268C606.49 1268 610.35 1271.81 610.35 1276.51C610.35 1281.17 606.57 1284.95 601.874 1285.02L601.015 1288.78C600.934 1289.1399999999999 600.818 1289.29 600.538 1289.55L595.328 1294.5L600.1809999999999 1299.36C600.766 1299.9399999999998 601.1229999999999 1300.9199999999998 600.049 1301.4499999999998L596.0029999999999 1303.4299999999998V1304.5199999999998H596.5849999999999V1305.0599999999997L595.698 1305.0799999999997L595.70604 1306.8052099999998C595.12867 1306.7682699999998 594.54551 1306.7402099999997 593.9630000000001 1306.7216599999997V1305.4299999999996H594.4000000000001V1305.0599999999997H594.0300000000001V1304.5199999999998H594.3600000000001L594.3500000000001 1301.4999999999998L591.1360000000001 1297.4699999999998C589.811 1297.7199999999998 588.9770000000001 1296.5499999999997 589.4830000000001 1295.5599999999997L592.4720000000001 1289.7199999999998L598.33 1284.3399999999997C595.2560000000001 1283.0399999999997 593.1070000000001 1280.0199999999998 593.1070000000001 1276.5099999999998C593.1070000000001 1271.8099999999997 596.9660000000001 1267.9999999999998 601.729 1267.9999999999998ZM593.963 1307.44H595.709L595.7060399999999 1306.80521C597.8905399999999 1306.94496 599.9920999999999 1307.21168 601.6619999999999 1307.57C601.9309999999999 1307.87 601.973 1308.1399999999999 601.6619999999999 1308.35H586.059C585.7199999999999 1308.02 585.8209999999999 1307.6299999999999 586.059 1307.2199999999998C587.5889999999999 1306.8799999999999 589.547 1306.7199999999998 591.639 1306.6999999999998C592.40216 1306.6890499999997 593.182 1306.6967999999997 593.963 1306.72166ZM597.788 1276.51C597.788 1278.66 599.551 1280.4 601.729 1280.4C603.903 1280.4 605.6690000000001 1278.66 605.6690000000001 1276.51C605.6690000000001 1274.36 603.9040000000001 1272.62 601.729 1272.62C599.551 1272.62 597.788 1274.36 597.788 1276.51ZM604.836 1276.51C604.836 1278.21 603.446 1279.58 601.729 1279.58C600.009 1279.58 598.6080000000001 1278.21 598.6080000000001 1276.51C598.6080000000001 1274.81 600.008 1273.44 601.729 1273.44C603.447 1273.44 604.836 1274.81 604.836 1276.51ZM593.478 1290.15C593.478 1290.15 596.733 1291.44 596.8889999999999 1291.5C597.0439999999999 1291.56 599.2419999999998 1288.9 599.2419999999998 1288.9L599.8109999999998 1285.5500000000002H598.9779999999998ZM592.882 1293.21C592.8199999999999 1293.33 594.204 1294.06 594.204 1294.06L596.082 1292.32L593.689 1291.34C593.689 1291.34 592.944 1293.09 592.882 1293.2099999999998ZM592.142 1296.66L595.46 1300.99C595.46 1300.99 598.043 1299.5 598.0120000000001 1299.3700000000001C597.9820000000001 1299.2500000000002 594.402 1295.3400000000001 594.402 1295.3400000000001ZM590.144 1295.99C590.144 1296.28 590.381 1296.5 590.673 1296.5C590.966 1296.5 591.202 1296.28 591.202 1295.99C591.202 1295.7 590.966 1295.47 590.673 1295.47C590.638 1295.47 590.603 1295.46 590.567 1295.47C590.328 1295.52 590.144 1295.74 590.144 1295.99ZM599.097 1300.56C599.097 1300.75 599.252 1300.8999999999999 599.441 1300.8999999999999C599.63 1300.8999999999999 599.784 1300.7499999999998 599.784 1300.56C599.784 1300.37 599.63 1300.22 599.441 1300.22C599.2520000000001 1300.22 599.097 1300.3700000000001 599.097 1300.56ZM595.117 1302.49C595.117 1302.78 595.3539999999999 1303.01 595.645 1303.01C595.939 1303.01 596.174 1302.78 596.174 1302.49C596.174 1302.2 595.939 1301.97 595.645 1301.97C595.3539999999999 1301.97 595.117 1302.2 595.117 1302.49ZM605.483 1308.88V1310H584.736V1308.88Z " fill="#605e58" fill-opacity="1" transform="matrix(1,0,0,1,-541,-1268)"></path></svg>