<svg id="SvgjsSvg1014" xmlns="http://www.w3.org/2000/svg" version="1.1" xmlns:xlink="http://www.w3.org/1999/xlink" xmlns:svgjs="http://svgjs.com/svgjs" width="162" height="70" viewBox="0 0 162 70"><title>Shape 3</title><desc>Created with Avocode.</desc><defs id="SvgjsDefs1015"></defs><path id="SvgjsPath1016" d="M1158.25 1271.97C1159.53 1270.45 1161.42 1268.92 1163.28 1267.84C1159.87 1268.3999999999999 1157.72 1270.3899999999999 1158.25 1271.97ZM1104.52 1289.83C1104.53 1291.3 1109.94 1295.76 1117.91 1298.56C1117.9 1295.1 1117.94 1289.94 1117.99 1286.34C1111.52 1286.6599999999999 1104.52 1287.53 1104.52 1289.83C1104.53 1292.12 1104.52 1289.83 1104.52 1289.83ZM1160.72 1274.02C1161.3500000000001 1274.21 1162.1100000000001 1274.33 1163 1274.33C1165.16 1274.32 1170.19 1272.32 1170.18 1269.8899999999999C1170.18 1269.4899999999998 1169.95 1268.4399999999998 1168.6200000000001 1268.4399999999998C1166.5800000000002 1268.4499999999998 1162.44 1272.09 1160.72 1274.0199999999998C1159 1275.9499999999998 1160.72 1274.0199999999998 1160.72 1274.0199999999998ZM1234.2 1302.43C1233.55 1305.14 1231.69 1311.48 1230.53 1314.96C1229.7 1317.38 1229.56 1320.94 1228.93 1321.08C1227.28 1321.4399999999998 1224.52 1318.77 1224.47 1316.05C1224.3700000000001 1310.79 1227.31 1302.12 1228.52 1298.22C1227.77 1296.74 1227.41 1295.1100000000001 1227.41 1293.78C1227.39 1287.96 1232.77 1281.73 1234.45 1280.35C1235.32 1279.6499999999999 1236.1100000000001 1281.61 1235.41 1283.09C1234.74 1284.51 1231.16 1290.1799999999998 1231.17 1292.08C1231.17 1292.49 1231.3100000000002 1292.9299999999998 1231.52 1293.3899999999999C1235.05 1288.8999999999999 1241.09 1282.2599999999998 1244.23 1282.07C1245.3600000000001 1282.01 1248.93 1283.46 1248.95 1289.47C1248.96 1295.48 1241.49 1302.94 1234.2 1302.43C1226.9 1301.91 1234.2 1302.43 1234.2 1302.43ZM1214.88 1303.17C1211.23 1303.29 1209.92 1299.3300000000002 1209.91 1297.5500000000002C1209.91 1296.4 1211.02 1293.63 1211.39 1292.2700000000002C1211.5 1291.8200000000002 1210.89 1291.2500000000002 1210.92 1290.8700000000001C1211.0800000000002 1289.2700000000002 1213.4 1289.1000000000001 1213.6000000000001 1288.5200000000002C1213.7900000000002 1288.0000000000002 1214.3000000000002 1286.3000000000002 1214.21 1285.8400000000001C1214.13 1285.4 1210.8700000000001 1284.7400000000002 1210.8700000000001 1283.1000000000001C1210.8600000000001 1281.3500000000001 1217.8300000000002 1281.38 1223.2 1280.8000000000002C1226.3300000000002 1280.4500000000003 1228.8700000000001 1283.3700000000001 1228.66 1284.0800000000002C1228.45 1284.7900000000002 1227.8400000000001 1285.2300000000002 1227.01 1285.44C1226.5 1285.56 1219.8 1285.74 1218.8 1286.16C1218.3 1286.3600000000001 1217.99 1288.4 1218.23 1288.8000000000002C1218.48 1289.2100000000003 1222.9 1289.2100000000003 1223.6 1289.2800000000002C1225 1289.39 1225.4299999999998 1292.4400000000003 1223.1599999999999 1292.5700000000002C1222.36 1292.6100000000001 1217.4999999999998 1292.5400000000002 1216.7199999999998 1292.7900000000002C1215.9299999999998 1293.0400000000002 1215.1599999999999 1296.63 1215.5599999999997 1296.9900000000002C1215.9799999999998 1297.3600000000001 1222.2199999999998 1295.9800000000002 1223.3299999999997 1295.9800000000002C1224.4399999999996 1295.9800000000002 1226.0099999999998 1297.2200000000003 1225.8999999999996 1298.2800000000002C1225.8199999999997 1298.9800000000002 1220.6499999999996 1302.9800000000002 1214.8799999999997 1303.1700000000003C1209.1199999999997 1303.3600000000004 1214.8799999999997 1303.1700000000003 1214.8799999999997 1303.1700000000003ZM1210.35 1305.85C1210.9399999999998 1305.85 1211.4299999999998 1306.31 1211.4399999999998 1306.9099999999999C1211.4399999999998 1307.1899999999998 1211.5599999999997 1313.62 1211.58 1314.7199999999998C1211.61 1314.7099999999998 1211.6499999999999 1314.7099999999998 1211.6999999999998 1314.6999999999998C1213.0099999999998 1314.4799999999998 1216.2699999999998 1313.9799999999998 1219.4899999999998 1314.3199999999997C1220.0799999999997 1314.3799999999997 1220.5199999999998 1314.9099999999996 1220.4499999999998 1315.4999999999998C1220.3899999999999 1316.0899999999997 1219.86 1316.5299999999997 1219.2699999999998 1316.4599999999998C1216.2699999999998 1316.1499999999999 1213.2599999999998 1316.61 1212.0599999999997 1316.8299999999997C1210.6899999999998 1317.0699999999997 1209.4199999999996 1316.4899999999998 1209.4199999999996 1314.8499999999997C1209.4199999999996 1314.4499999999996 1209.3199999999997 1309.5099999999998 1209.2799999999995 1306.9399999999996C1209.2699999999995 1306.3499999999997 1209.7599999999995 1305.8499999999997 1210.3499999999995 1305.8499999999997C1210.9399999999994 1305.8499999999997 1210.3499999999995 1305.8499999999997 1210.3499999999995 1305.8499999999997ZM1207.15 1315.59C1206.0700000000002 1316.31 1203.74 1316.09 1201.41 1316.31C1200.2900000000002 1316.4099999999999 1199.44 1316.21 1199.0800000000002 1315.8C1198.7700000000002 1315.44 1198.5200000000002 1313.99 1198.3300000000002 1312.45C1198.3100000000002 1312.3600000000001 1198.2900000000002 1312.27 1198.2900000000002 1312.17C1198.2900000000002 1312.16 1198.2900000000002 1312.15 1198.2900000000002 1312.13C1198.0600000000002 1310.18 1197.9300000000003 1308.18 1197.9300000000003 1308.15C1197.9300000000003 1307.64 1198.1600000000003 1307.3100000000002 1198.3500000000004 1307.1200000000001C1198.8900000000003 1306.6000000000001 1199.6500000000003 1306.5900000000001 1200.9500000000003 1306.6100000000001C1202.2800000000002 1306.64 1205.3600000000004 1306.45 1205.7600000000002 1306.41C1206.2700000000002 1306.3200000000002 1206.7800000000002 1306.6200000000001 1206.9600000000003 1307.1200000000001C1207.1600000000003 1307.68 1206.8600000000004 1308.2900000000002 1206.2900000000002 1308.49C1205.88 1308.63 1201.7800000000002 1308.78 1200.9200000000003 1308.77C1200.7600000000002 1308.76 1200.4300000000003 1308.76 1200.1400000000003 1308.76C1200.1800000000003 1309.32 1200.2000000000003 1309.56 1200.3000000000004 1310.45C1202.0600000000004 1310.39 1204.2800000000004 1310.23 1205.2700000000004 1310.06C1205.7500000000005 1309.98 1206.3000000000004 1310.45 1206.3100000000004 1311.05C1206.3300000000004 1311.51 1206.0000000000005 1311.98 1205.4200000000003 1312.09C1203.9300000000003 1312.3799999999999 1202.1300000000003 1312.47 1200.5500000000004 1312.53C1200.6100000000004 1312.94 1200.7300000000005 1313.97 1200.7800000000004 1314.23C1201.7500000000005 1314.33 1203.5500000000004 1314.1 1206.1000000000004 1313.6200000000001C1206.6900000000003 1313.5100000000002 1207.1900000000003 1313.49 1207.4800000000005 1314.0000000000002C1207.7700000000004 1314.5200000000002 1207.6400000000006 1315.2600000000002 1207.1500000000005 1315.5900000000001C1206.6600000000005 1315.92 1207.1500000000005 1315.5900000000001 1207.1500000000005 1315.5900000000001ZM1191.97 1314.18L1191.81 1314.03C1191.34 1313.58 1190.62 1312.82 1189.86 1312.02C1189.58 1311.73 1189.26 1311.3899999999999 1188.9399999999998 1311.06C1189.0099999999998 1312.44 1189.1299999999999 1314.25 1189.2599999999998 1315.95C1189.2999999999997 1316.54 1188.8599999999997 1317.06 1188.2599999999998 1317.1000000000001C1188.2299999999998 1317.1000000000001 1188.1999999999998 1317.1000000000001 1188.1799999999998 1317.1000000000001C1187.62 1317.1000000000001 1187.1399999999999 1316.68 1187.1 1316.1100000000001C1187.1 1316.1100000000001 1186.9599999999998 1314.2600000000002 1186.85 1312.4C1186.62 1308.5500000000002 1186.58 1307.8500000000001 1187.57 1307.5600000000002C1188.3799999999999 1307.3100000000002 1188.6699999999998 1307.6200000000001 1191.4299999999998 1310.5400000000002C1192.1399999999999 1311.2900000000002 1192.8799999999999 1312.0700000000002 1193.2999999999997 1312.4700000000003L1193.4599999999998 1312.6300000000003C1193.6899999999998 1312.8500000000004 1194.0399999999997 1313.1700000000003 1194.3799999999999 1313.4800000000002C1194.2099999999998 1311.5800000000002 1193.8899999999999 1308.5700000000002 1193.6999999999998 1306.8200000000002C1193.6299999999999 1306.2300000000002 1194.0599999999997 1305.7000000000003 1194.6599999999999 1305.63C1195.2499999999998 1305.5700000000002 1195.79 1306 1195.85 1306.5900000000001C1195.8799999999999 1306.88 1196.61 1313.64 1196.6599999999999 1314.93C1196.6999999999998 1315.89 1196.1299999999999 1316.25 1195.8799999999999 1316.3700000000001C1194.83 1316.8400000000001 1193.77 1315.9 1191.9699999999998 1314.18ZM1176.92 1317.68C1176.3000000000002 1317.74 1175.88 1317.42 1175.72 1316.97C1175.69 1316.89 1175.6100000000001 1316.63 1175.59 1312.28C1175.57 1307.54 1175.6599999999999 1307.21 1176.4399999999998 1306.8999999999999C1177.3099999999997 1306.54 1177.84 1307.2199999999998 1178.6499999999999 1308.2599999999998C1179.1699999999998 1308.9199999999998 1179.83 1309.7899999999997 1180.5199999999998 1310.7199999999998C1181.1499999999999 1311.5699999999997 1181.9799999999998 1312.6599999999999 1182.6299999999997 1313.4899999999998C1182.6599999999996 1311.6999999999998 1182.9099999999996 1306.37 1182.9699999999996 1305.87C1183.0399999999995 1305.28 1183.5799999999995 1304.87 1184.1799999999996 1304.9299999999998C1184.7699999999995 1305.0099999999998 1185.1899999999996 1305.5499999999997 1185.1199999999997 1306.1399999999999C1185.0699999999997 1306.4999999999998 1184.8199999999997 1310.7599999999998 1184.7999999999997 1312.57C1184.7799999999997 1314.4199999999998 1184.7699999999998 1315.9399999999998 1183.8899999999996 1316.47C1183.4899999999996 1316.72 1182.9899999999996 1316.74 1182.5299999999997 1316.51C1182.0199999999998 1316.25 1181.3899999999996 1315.5 1178.7799999999997 1312.01C1178.4699999999998 1311.58 1178.0999999999997 1311.1 1177.7499999999998 1310.6299999999999C1177.7299999999998 1312.8899999999999 1177.7899999999997 1315.9599999999998 1177.8199999999997 1316.51C1177.8699999999997 1317 1177.5399999999997 1317.61 1176.9199999999996 1317.68C1176.2999999999997 1317.74 1176.9199999999996 1317.68 1176.9199999999996 1317.68ZM1163.99 1316.03C1164.1200000000001 1315.46 1164.25 1314.94 1164.38 1314.43C1163.97 1314.41 1163.6000000000001 1314.16 1163.44 1313.75C1163.22 1313.2 1163.49 1312.58 1164.05 1312.36C1164.11 1312.34 1164.46 1312.2099999999998 1164.99 1312C1166.75 1305.34 1167.39 1305.3 1168.11 1305.28C1168.6899999999998 1305.26 1169.2299999999998 1305.25 1171.7299999999998 1309.76C1172.1899999999998 1309.79 1172.5899999999997 1310.1 1172.7099999999998 1310.56C1172.7899999999997 1310.85 1172.7399999999998 1311.1299999999999 1172.6 1311.37C1173.1799999999998 1312.4699999999998 1173.85 1313.75 1174.61 1315.28C1174.87 1315.81 1174.6599999999999 1316.46 1174.12 1316.72C1173.59 1316.99 1172.9399999999998 1316.78 1172.6699999999998 1316.24C1172.0099999999998 1314.94 1171.3 1313.55 1170.61 1312.27C1169.4199999999998 1312.66 1167.9699999999998 1313.18 1166.82 1313.62C1166.56 1314.58 1166.32 1315.57 1166.1 1316.52C1165.98 1317.02 1165.5 1317.41 1164.9199999999998 1317.33C1164.9076099999997 1317.3284999999998 1164.89575 1317.3270699999998 1164.8844 1317.3256999999999C1164.2359 1317.2368299999998 1163.85249 1316.5996499999999 1163.99 1316.03ZM1162.44 1280.67C1164.22 1280.67 1165.04 1283 1165.3300000000002 1295.0700000000002C1165.4800000000002 1301.44 1164.8600000000001 1301.65 1163.0400000000002 1301.66C1161.0100000000002 1301.67 1159.8700000000001 1300.76 1160.0300000000002 1293.15C1160.0348500000002 1292.9323800000002 1160.0394300000003 1292.7272 1160.0437400000003 1292.53391C1160.0501700000002 1292.24564 1160.0560100000002 1291.98384 1160.0613000000003 1291.74673C1160.1552400000003 1287.7842 1160.4389800000004 1280.6876300000001 1162.4399900000003 1280.67ZM1161.48 1311.41L1161.68 1316C1161.71 1316.6 1161.25 1317.1 1160.65 1317.12C1160.63 1317.12 1160.6200000000001 1317.12 1160.6000000000001 1317.12C1160.0300000000002 1317.12 1159.5500000000002 1316.6799999999998 1159.5200000000002 1316.1L1159.3400000000001 1312C1158.39 1312.27 1157.2900000000002 1312.59 1156.19 1312.92V1315.5700000000002C1156.19 1316.16 1155.71 1316.64 1155.1100000000001 1316.64C1154.5100000000002 1316.64 1154.0300000000002 1316.16 1154.0300000000002 1315.5700000000002V1313.5600000000002C1153.9300000000003 1313.6000000000001 1153.8200000000002 1313.63 1153.7200000000003 1313.66C1153.6200000000003 1313.69 1153.5100000000002 1313.7 1153.4100000000003 1313.7C1152.9400000000003 1313.7 1152.5200000000002 1313.41 1152.3800000000003 1312.94C1152.2000000000003 1312.3700000000001 1152.5200000000004 1311.77 1153.1000000000004 1311.5900000000001C1153.2900000000004 1311.5400000000002 1153.6200000000003 1311.44 1154.0300000000004 1311.3100000000002V1307.3500000000001C1154.0300000000004 1306.7500000000002 1154.5100000000004 1306.2700000000002 1155.1100000000004 1306.2700000000002C1155.7100000000003 1306.2700000000002 1156.1900000000003 1306.7500000000002 1156.1900000000003 1307.3500000000001V1310.67C1157.2100000000003 1310.3700000000001 1158.3000000000002 1310.0500000000002 1159.2400000000002 1309.79L1159.0900000000001 1306.3899999999999C1159.0700000000002 1305.8 1159.5300000000002 1305.3 1160.1200000000001 1305.27C1160.71 1305.25 1161.22 1305.7 1161.2500000000002 1306.3L1161.3800000000003 1309.22C1161.4400000000003 1309.2 1161.5000000000002 1309.2 1161.5500000000004 1309.19C1162.1400000000003 1309.1000000000001 1162.7400000000005 1309.5 1162.7800000000004 1310.0900000000001C1162.8300000000004 1310.7900000000002 1162.4400000000005 1311.2600000000002 1161.4800000000005 1311.41C1160.5200000000004 1311.5600000000002 1161.4800000000005 1311.41 1161.4800000000005 1311.41ZM1141.89 1316.24C1140.47 1316.24 1138.44 1315.51 1137.91 1313.95C1137.49 1312.66 1138.1100000000001 1311.32 1139.77 1309.94C1143.5 1306.8200000000002 1145.7 1306.28 1147.19 1306.16C1149 1306.02 1149.74 1307.17 1149.8700000000001 1307.7900000000002C1149.99 1308.38 1149.6200000000001 1308.9500000000003 1149.0400000000002 1309.0700000000002C1148.4900000000002 1309.18 1147.9500000000003 1308.8700000000001 1147.7900000000002 1308.3600000000001C1147.7400000000002 1308.3300000000002 1147.6100000000001 1308.2900000000002 1147.3600000000001 1308.3100000000002C1146.18 1308.4 1144.42 1308.8600000000001 1141.15 1311.5900000000001C1140.0800000000002 1312.4900000000002 1139.9 1313.0700000000002 1139.97 1313.2600000000002C1140.1000000000001 1313.63 1140.97 1314.0400000000002 1141.7 1314.0800000000002C1143.27 1314.16 1149.47 1313.8100000000002 1150.74 1313.39C1151.3 1313.2 1151.92 1313.49 1152.11 1314.0600000000002C1152.3 1314.6200000000001 1152 1315.2300000000002 1151.4299999999998 1315.42C1149.86 1315.96 1144.06 1316.24 1141.8899999999999 1316.24C1139.7299999999998 1316.24 1141.8899999999999 1316.24 1141.8899999999999 1316.24ZM1123.63 1280.88C1138.49 1280.88 1142.91 1284.98 1142.92 1288.48C1142.93 1291.1200000000001 1139.92 1292.79 1139.66 1292.76C1138.17 1292.66 1136.46 1292.79 1136.45 1292.04C1136.45 1291.03 1138.3 1290.3 1138.3 1289.24C1138.29 1288 1131.31 1286.1200000000001 1125.98 1286.14C1125.32 1286.14 1124.54 1286.15 1123.71 1286.16C1123.79 1290.3700000000001 1123.98 1297.0500000000002 1124.0900000000001 1300.23C1126.45 1300.68 1128.93 1300.95 1131.4800000000002 1300.94C1138.6700000000003 1300.92 1151.7100000000003 1298.68 1151.6800000000003 1288.7C1151.6400000000003 1275.8500000000001 1126.3700000000003 1260.71 1104.4300000000003 1260.77C1101.8800000000003 1260.78 1096.7600000000002 1261 1096.7600000000002 1261.95C1096.7600000000002 1262.77 1098.0800000000002 1262.6000000000001 1098.0800000000002 1263.42C1098.0900000000001 1264 1097.18 1264.0800000000002 1096.18 1264.0800000000002C1095.19 1264.0900000000001 1093.55 1263.9700000000003 1093.5800000000002 1262.5700000000002C1093.5800000000002 1261.1100000000001 1095.14 1259.3200000000002 1096.8400000000001 1258.5700000000002C1098.8300000000002 1257.7300000000002 1103.0800000000002 1257.2000000000003 1108.14 1257.0600000000002C1131.3400000000001 1256.41 1158 1275.3400000000001 1158.0300000000002 1288.5100000000002C1158.0600000000002 1298.3300000000002 1147.2600000000002 1305.5000000000002 1133.8100000000002 1305.5400000000002C1130.3600000000001 1305.5500000000002 1127.1100000000001 1305.1100000000001 1124.1100000000001 1304.3400000000001C1123.91 1305.8200000000002 1123.2500000000002 1307.2200000000003 1121.3400000000001 1307.2200000000003C1118.7 1307.2400000000002 1118.13 1305.2000000000003 1117.9700000000003 1302.2400000000002C1108.7000000000003 1298.2300000000002 1102.9600000000003 1291.6300000000003 1102.9600000000003 1289.0200000000002C1102.9600000000003 1285.8100000000002 1110.0900000000004 1282.5600000000002 1118.1000000000004 1281.3600000000001C1118.2600000000004 1277.5900000000001 1118.8000000000004 1270.7700000000002 1120.6600000000003 1270.7600000000002C1122.8900000000003 1270.7500000000002 1123.4900000000002 1276.9500000000003 1123.6300000000003 1280.88C1123.7700000000004 1284.8100000000002 1123.6300000000003 1280.88 1123.6300000000003 1280.88ZM1160.75 1265.73C1159.67 1265.31 1158.75 1264.5 1158.33 1263.42C1157.87 1262.22 1158.1 1260.89 1158.8799999999999 1259.9C1160.32 1258.0600000000002 1163.1399999999999 1257.72 1165.07 1258.96C1166.1 1259.63 1166.83 1260.74 1166.8899999999999 1261.97C1166.9299999999998 1262.96 1166.53 1263.93 1165.86 1264.65C1167.6299999999999 1264.75 1168.84 1265.64 1169.6699999999998 1266.44C1169.6899999999998 1266.44 1169.7099999999998 1266.45 1169.7299999999998 1266.45C1169.7499999999998 1265.8600000000001 1169.8999999999999 1265.27 1170.1999999999998 1264.76C1170.86 1263.61 1172.0199999999998 1262.86 1173.33 1262.71C1174.6299999999999 1262.55 1176.1499999999999 1263.01 1177.4499999999998 1264.32C1178.1899999999998 1265.07 1178.6 1266.11 1178.6699999999998 1267.1699999999998C1178.7599999999998 1268.4099999999999 1178.2699999999998 1269.6499999999999 1177.33 1270.4799999999998C1176.36 1271.3199999999997 1175.02 1271.6299999999999 1173.76 1271.4099999999999C1173.23 1271.36 1172.71 1271.1899999999998 1172.24 1270.9299999999998C1170.81 1274.11 1165.89 1277.33 1162.59 1277.2699999999998C1156.9599999999998 1277.1699999999998 1155.56 1273.9299999999998 1155.55 1272.0599999999997C1155.55 1270.2299999999998 1157.49 1267.3099999999997 1160.75 1265.7299999999998C1164 1264.1599999999999 1160.75 1265.7299999999998 1160.75 1265.7299999999998ZM1180.51 1280.75C1183.58 1280.74 1189.01 1280.71 1189.02 1282.83C1189.03 1286.36 1171.55 1284.4399999999998 1171.53 1287.04C1171.51 1287.82 1175.31 1288 1178.84 1288.29C1183.55 1288.69 1188.9499999999998 1289.33 1188.9599999999998 1295.01C1188.9699999999998 1297.36 1186.9499999999998 1301.89 1178.9399999999998 1301.91C1170.82 1301.93 1167.9199999999998 1297.78 1167.9199999999998 1296.02C1167.8999999999999 1292.61 1171.1699999999998 1291.69 1173.4399999999998 1291.67C1175.59 1291.67 1182.58 1292.51 1182.59 1294.23C1182.6 1295.17 1180.84 1296.1 1178.73 1296.1100000000001C1176.63 1296.1200000000001 1173.56 1294.2400000000002 1172.08 1294.2400000000002C1170.6 1294.2400000000002 1169.9399999999998 1295.2300000000002 1169.9399999999998 1295.8100000000002C1169.9399999999998 1296.38 1170.0199999999998 1297.5400000000002 1173.9899999999998 1297.5300000000002C1175.9199999999998 1297.5100000000002 1185.2599999999998 1296.4800000000002 1185.2499999999998 1293.9100000000003C1185.2499999999998 1292.7600000000002 1180.9599999999998 1291.6200000000003 1177.4299999999998 1291.2500000000002C1173.1 1290.8200000000002 1166.58 1291.8900000000003 1166.57 1287.5000000000002C1166.55 1281.0400000000002 1178.21 1280.7600000000002 1180.51 1280.7500000000002C1182.81 1280.7500000000002 1180.51 1280.7500000000002 1180.51 1280.7500000000002ZM1194.01 1282.44C1196.69 1282.64 1203.1299999999999 1294.3500000000001 1203.87 1294.14C1204.35 1294.01 1204.3999999999999 1292.9 1204.3999999999999 1292.2900000000002C1204.3899999999999 1289.3200000000002 1201.32 1281.5900000000001 1201.3 1279.3700000000001C1201.3 1278.64 1201.43 1277.94 1202.09 1277.94C1204.72 1277.93 1209.25 1286.25 1209.28 1293.05C1209.28 1296.02 1207.45 1300.59 1204.31 1300.59C1201.4199999999998 1300.61 1196.22 1289.9299999999998 1195.27 1289.9299999999998C1194 1289.9299999999998 1195.6399999999999 1301.62 1192.45 1301.62C1190.31 1301.6299999999999 1189.81 1299.6999999999998 1189.8 1296.82C1189.79 1293.9399999999998 1191.25 1282.24 1194.01 1282.4399999999998C1196.77 1282.6399999999999 1194.01 1282.4399999999998 1194.01 1282.4399999999998ZM1251.31358 1285.32978C1251.07544 1284.35138 1251.17869 1284.77561 1251.31358 1285.32978C1249.81623 1280.22271 1244.77091 1277.7544 1242.41 1277.15C1239.63 1276.43 1236.64 1276.65 1234.01 1277.77C1232.74 1278.32 1231.04 1279.28 1230 1280.21C1228.9 1279.16 1226.45 1277.72 1223.66 1277.72C1221.22 1277.83 1211.22 1278.99 1208.65 1280.3500000000001C1207.24 1277.8700000000001 1205.0300000000002 1275.1000000000001 1202.3600000000001 1274.9C1201.1100000000001 1274.8000000000002 1199.88 1275.3100000000002 1199.13 1276.3300000000002C1198.0800000000002 1277.7500000000002 1198.16 1279.68 1198.49 1281.8000000000002C1194.67 1277.9900000000002 1186.1 1277.7400000000002 1180.65 1277.7000000000003C1175.46 1277.6700000000003 1168.69 1279.0000000000002 1166.7800000000002 1280.0400000000002C1167.7600000000002 1279.4600000000003 1171.5000000000002 1277.2900000000002 1173.8300000000002 1274.1200000000001C1176.18 1274.49 1178.8700000000001 1273.24 1180.2100000000003 1271.3000000000002C1181.6700000000003 1269.1900000000003 1181.7500000000002 1266.3400000000001 1180.5700000000002 1264.0800000000002C1179.6100000000001 1262.2200000000003 1177.8400000000001 1260.8000000000002 1175.8200000000002 1260.2400000000002C1173.64 1259.6300000000003 1171.2200000000003 1260.0600000000002 1169.4600000000003 1261.4900000000002C1169.2100000000003 1259.0900000000001 1167.4800000000002 1257.0400000000002 1165.2600000000002 1256.1500000000003C1162.88 1255.2000000000003 1160.0500000000002 1255.5500000000004 1158.0200000000002 1257.1300000000003C1156.9200000000003 1257.9800000000002 1156.0800000000002 1259.1700000000003 1155.7100000000003 1260.5000000000002C1155.2700000000002 1262.0600000000002 1155.4900000000002 1263.7700000000002 1156.2900000000002 1265.1800000000003C1156.2900000000002 1265.1800000000003 1156.2800000000002 1265.1900000000003 1156.2700000000002 1265.2000000000003C1154.2400000000002 1267.0000000000002 1152.4200000000003 1269.6900000000003 1152.6100000000001 1272.5200000000002C1147.7900000000002 1267.7500000000002 1142.1000000000001 1263.9500000000003 1136.8200000000002 1261.2300000000002C1131.4600000000003 1258.4800000000002 1121.2200000000003 1254.2500000000002 1110.66 1254.0100000000002C1107.5500000000002 1253.9400000000003 1100.64 1254.2300000000002 1097.5 1255.1700000000003C1090.79 1257.1700000000003 1090.13 1262.0300000000002 1090.85 1264.1400000000003C1091.6599999999999 1266.5000000000002 1094.4399999999998 1267.4300000000003 1098 1266.8200000000004C1099.31 1266.5900000000004 1100.68 1265.4900000000005 1101 1263.7800000000004C1106.18 1263.4800000000005 1112.15 1263.9100000000005 1117.87 1265.4400000000005C1116.55 1268.9600000000005 1115.6999999999998 1273.5400000000004 1115.2299999999998 1278.7600000000004C1112.3399999999997 1279.3700000000003 1108.86 1280.3700000000003 1106.1899999999998 1281.6700000000005C1103.8099999999997 1282.8400000000006 1101.1899999999998 1284.5100000000004 1100.2599999999998 1287.1300000000006C1099.2699999999998 1289.9300000000005 1100.9199999999998 1292.6900000000005 1102.6499999999999 1294.8000000000006C1104.4999999999998 1297.0300000000007 1108.9999999999998 1301.2100000000007 1115.12 1304.1500000000005C1115.37 1305.6600000000005 1116.06 1308.8000000000006 1119.28 1309.8300000000006C1121.5 1310.5500000000006 1124.33 1310.0400000000006 1125.95 1307.7100000000007C1127.98 1308.1800000000007 1131.75 1308.4200000000008 1134.04 1308.4500000000007L1134.05 1311.6300000000008C1134.05 1315.5700000000008 1137.26 1318.8000000000009 1141.22 1318.8000000000009H1222.05C1223.07 1320.9100000000008 1225.1299999999999 1323.4200000000008 1227.5 1323.8800000000008C1231.75 1324.7200000000007 1232.25 1320.7800000000009 1232.48 1319.5400000000009C1232.72 1318.240000000001 1232.91 1316.940000000001 1233.33 1315.680000000001L1236.4399999999998 1305.3000000000009C1239.1499999999999 1304.8800000000008 1242.2399999999998 1303.6100000000008 1244.4399999999998 1302.010000000001C1246.59 1300.440000000001 1248.4599999999998 1298.470000000001 1249.83 1296.180000000001C1251.6 1293.200000000001 1252.37 1289.670000000001 1251.54 1286.260000000001C1251.47769 1285.940660000001 1251.40179 1285.630640000001 1251.31358 1285.329780000001ZM1167.51 1311.06C1168.19 1310.81 1168.9 1310.56 1169.56 1310.35C1169.1 1309.54 1168.7 1308.83 1168.36 1308.29C1168.11 1309 1167.82 1309.97 1167.51 1311.06C1167.2 1312.1599999999999 1167.51 1311.06 1167.51 1311.06ZM1244.57 1286.36C1244.5697 1286.35999 1244.5693899999999 1286.35999 1244.56909 1286.35998C1243.58061 1286.34001 1244.57 1286.36 1244.57 1286.36ZM1236.67 1296.94C1240.54 1297.01 1245.95 1293.31 1245.94 1288.8500000000001C1245.93 1287.3500000000001 1245.56 1286.3700000000001 1244.5700000000002 1286.3600000000001C1244.5697000000002 1286.3599900000002 1244.56939 1286.3599900000002 1244.5690900000002 1286.3599800000002C1243.1483500000002 1286.3325900000002 1239.2994400000002 1292.3909700000002 1236.6700000000003 1296.9400000000003Z " fill="#ffca2a" fill-opacity="1" transform="matrix(1,0,0,1,-1090,-1254)"></path></svg>