<svg id="SvgjsSvg1022" xmlns="http://www.w3.org/2000/svg" version="1.1" xmlns:xlink="http://www.w3.org/1999/xlink" xmlns:svgjs="http://svgjs.com/svgjs" width="57" height="39" viewBox="0 0 57 39"><title>icon</title><desc>Created with Avocode.</desc><defs id="SvgjsDefs1023"></defs><path id="SvgjsPath1024" d="M1423.75 2985.3C1423.49 2985.3100000000004 1423.23 2985.2200000000003 1423.03 2985.03C1416.48 2978.8500000000004 1406.51 2978.8100000000004 1400.82 2984.9500000000003C1400.4399999999998 2985.36 1399.81 2985.38 1399.4099999999999 2985.0000000000005C1399.0099999999998 2984.6200000000003 1398.9899999999998 2983.9900000000002 1399.37 2983.5800000000004C1405.81 2976.6400000000003 1417.03 2976.6300000000006 1424.3899999999999 2983.57C1424.79 2983.9500000000003 1424.82 2984.5800000000004 1424.4399999999998 2984.98C1424.2499999999998 2985.19 1423.9999999999998 2985.29 1423.7499999999998 2985.3ZM1431.02 2978.83C1430.77 2978.84 1430.51 2978.75 1430.31 2978.56C1424.95 2973.5 1418.1 2970.71 1411.02 2970.7C1403.96 2970.6899999999996 1397.52 2973.4399999999996 1392.87 2978.45C1392.4899999999998 2978.8599999999997 1391.86 2978.8799999999997 1391.4599999999998 2978.5C1391.0599999999997 2978.12 1391.0399999999997 2977.49 1391.4199999999998 2977.08C1396.4499999999998 2971.66 1403.4099999999999 2968.68 1411.0199999999998 2968.69C1418.6099999999997 2968.71 1425.9399999999998 2971.69 1431.6699999999998 2977.09C1432.07 2977.4700000000003 1432.09 2978.11 1431.7199999999998 2978.51C1431.5299999999997 2978.71 1431.2799999999997 2978.82 1431.0199999999998 2978.8300000000004ZM1438.91 2972.35C1438.66 2972.35 1438.4 2972.2599999999998 1438.2 2972.0699999999997C1422.46 2957.2299999999996 1398.5 2957.1699999999996 1384.8 2971.95C1384.4199999999998 2972.35 1383.79 2972.37 1383.3899999999999 2971.99C1382.9899999999998 2971.62 1382.9699999999998 2970.9799999999996 1383.34 2970.58C1397.8 2955 1423.02 2955.0099999999998 1439.56 2970.61C1439.96 2970.9900000000002 1439.98 2971.6200000000003 1439.6 2972.03C1439.4199999999998 2972.23 1439.1599999999999 2972.34 1438.9099999999999 2972.3500000000004ZM1410.99 2996.99C1408.11 2996.99 1405.77 2994.6299999999997 1405.77 2991.7299999999996C1405.77 2988.8199999999997 1408.11 2986.4599999999996 1410.99 2986.4599999999996C1413.8700000000001 2986.4599999999996 1416.21 2988.8199999999997 1416.21 2991.7299999999996C1416.21 2994.6299999999997 1413.8700000000001 2996.99 1410.99 2996.99ZM1410.99 2988.47C1409.21 2988.47 1407.76 2989.93 1407.76 2991.73C1407.76 2993.52 1409.21 2994.9900000000002 1410.99 2994.9900000000002C1412.77 2994.9900000000002 1414.22 2993.5200000000004 1414.22 2991.73C1414.22 2989.93 1412.77 2988.47 1410.99 2988.47Z " fill="#605e58" fill-opacity="1" transform="matrix(1,0,0,1,-1383,-2958)"></path></svg>