<svg id="SvgjsSvg1016" xmlns="http://www.w3.org/2000/svg" version="1.1" xmlns:xlink="http://www.w3.org/1999/xlink" xmlns:svgjs="http://svgjs.com/svgjs" width="56" height="56" viewBox="0 0 56 56"><title>icon</title><desc>Created with Avocode.</desc><defs id="SvgjsDefs1017"></defs><path id="SvgjsPath1018" d="M885 2960C885 2959.45 884.552 2959 884 2959C883.448 2959 883 2959.45 883 2960V2963.0997C881.28313 2963.4978 880 2965.04124 880 2966.88V2967.13C880 2968.9601700000003 881.28313 2970.5024000000003 883 2970.90033V2995C883 2995.55 883.448 2996 884 2996C884.552 2996 885 2995.55 885 2995V2970.90033C886.71687 2970.5024 888 2968.96017 888 2967.13V2966.88C888 2965.04124 886.71687 2963.49779 885 2963.0997ZM899 2995C899 2995.55 899.447 2996 900 2996C900.553 2996 901 2995.55 901 2995L901 2980.90033C902.71687 2980.5024 904 2978.96017 904 2977.13V2976.88C904 2975.04124 902.71687 2973.49779 901 2973.0997L901 2960C901 2959.45 900.553 2959 900 2959C899.447 2959 899 2959.45 899 2960L899 2973.0997C897.28313 2973.4978 896 2975.04124 896 2976.88V2977.13C896 2978.9601700000003 897.28313 2980.5024000000003 899 2980.90033ZM915 2995C915 2995.55 915.447 2996 916 2996C916.553 2996 917 2995.55 917 2995L917 2990.90033C918.71687 2990.5024 920 2988.96017 920 2987.13V2986.88C920 2985.04124 918.71687 2983.49779 917 2983.0997L917 2960C917 2959.45 916.553 2959 916 2959C915.447 2959 915 2959.45 915 2960L915 2983.0997C913.28313 2983.4978 912 2985.04124 912 2986.88V2987.13C912 2988.9601700000003 913.28313 2990.5024000000003 915 2990.90033ZM884.125 2965C885.159 2965 886 2965.84 886 2966.88V2967.13C886 2968.1600000000003 885.159 2969 884.125 2969H883.875C882.841 2969 882 2968.16 882 2967.13V2966.88C882 2965.84 882.841 2965 883.875 2965ZM900.125 2975C901.159 2975 902 2975.84 902 2976.88V2977.13C902 2978.1600000000003 901.159 2979 900.125 2979H899.875C898.841 2979 898 2978.16 898 2977.13V2976.88C898 2975.84 898.841 2975 899.875 2975ZM916.125 2985C917.159 2985 918 2985.84 918 2986.88V2987.13C918 2988.1600000000003 917.159 2989 916.125 2989H915.875C914.841 2989 914 2988.16 914 2987.13V2986.88C914 2985.84 914.841 2985 915.875 2985ZM928 2950H872V3006H928ZM874 2952H926V3004H874Z " fill="#ffca2a" fill-opacity="1" transform="matrix(1,0,0,1,-872,-2950)"></path></svg>