<svg id="SvgjsSvg1013" xmlns="http://www.w3.org/2000/svg" version="1.1" xmlns:xlink="http://www.w3.org/1999/xlink" xmlns:svgjs="http://svgjs.com/svgjs" width="52" height="59" viewBox="0 0 52 59"><title>icon</title><desc>Created with Avocode.</desc><defs id="SvgjsDefs1014"></defs><path id="SvgjsPath1015" d="M645.699 3006.01C645.477 3006.01 645.257 3005.94 645.073 3005.7900000000004C645.019 3005.7500000000005 639.5699999999999 3001.4800000000005 632.8589999999999 3000.1900000000005C630.7629999999999 2999.7900000000004 629.0239999999999 2999.5500000000006 627.4899999999999 2999.3300000000004C623.7969999999999 2998.82 621.5679999999999 2998.51 620.1689999999999 2996.6100000000006C619.9959999999999 2996.3800000000006 619.9329999999999 2996.0800000000004 619.9949999999999 2995.8000000000006C620.0559999999999 2995.5200000000004 620.2369999999999 2995.2700000000004 620.4909999999999 2995.1300000000006L625.0289999999999 2992.6200000000003C625.2299999999999 2992.51 625.4609999999999 2992.4700000000003 625.6859999999999 2992.51L627.3269999999999 2992.7900000000004L627.2799999999999 2992.7200000000003C622.9869999999999 2987.9800000000005 620.6249999999999 2981.7400000000002 620.6249999999999 2975.1400000000003C620.6249999999999 2960.7200000000003 632.3659999999999 2948.9900000000002 646.7979999999999 2948.9900000000002C657.3699999999999 2948.9900000000002 666.8389999999999 2955.2900000000004 670.9189999999999 2965.03C671.1219999999998 2965.51 670.9209999999998 2966.0600000000004 670.4589999999998 2966.3100000000004L663.7259999999999 2969.8400000000006C663.3299999999999 2970.0500000000006 662.8459999999999 2969.9700000000007 662.5359999999998 2969.6500000000005L659.6419999999998 2966.6700000000005L658.8339999999998 2967.3900000000003C660.7599999999999 2969.5200000000004 665.5079999999998 2975.7700000000004 664.8569999999999 2985.1200000000003C664.8199999999998 2985.6500000000005 664.3809999999999 2986.0600000000004 663.8519999999999 2986.0600000000004H662.1119999999999C662.8329999999999 2989.6100000000006 663.7129999999999 2995.6400000000003 661.7259999999999 2997.03C660.9839999999999 2997.55 660.0039999999999 2997.8100000000004 658.8129999999999 2997.8100000000004C657.6979999999999 2997.8100000000004 656.6039999999999 2997.5800000000004 655.8969999999998 2997.3900000000003L655.4869999999999 2998.05L661.6289999999999 3000.59C661.9879999999999 3000.7400000000002 662.2289999999999 3001.08 662.2499999999999 3001.4700000000003C662.2709999999998 3001.86 662.0659999999999 3002.2200000000003 661.7249999999999 3002.4100000000003C661.5819999999999 3002.4900000000002 658.1999999999999 3004.32 656.3459999999999 3004.7300000000005C656.1039999999999 3004.7800000000007 655.8329999999999 3004.8100000000004 655.5409999999999 3004.8100000000004C653.3249999999999 3004.8100000000004 649.6039999999999 3003.1800000000003 647.8829999999999 3001.4600000000005C646.2839999999999 2999.8600000000006 644.771 2994.6400000000003 644.2339999999999 2992.6300000000006C642.9189999999999 2992.6500000000005 641.3019999999999 2993.0900000000006 640.564 2994.9100000000008C641.5609999999999 2996.0300000000007 644.1229999999999 2999.060000000001 645.265 3001.5900000000006L646.617 3004.5900000000006C646.807 3005.0100000000007 646.684 3005.5100000000007 646.318 3005.8000000000006C646.136 3005.9400000000005 645.917 3006.0100000000007 645.699 3006.0100000000007ZM644.334 2990.62C644.848 2990.62 645.174 2990.67 645.174 2990.67C645.572 2990.73 645.9019999999999 2991.03 646 2991.42C646.683 2994.16 648.186 2998.91 649.307 3000.04C650.647 3001.38 653.851 3002.79 655.541 3002.79C655.7220000000001 3002.79 655.841 3002.7799999999997 655.9090000000001 3002.7599999999998C656.6450000000001 3002.6 657.7990000000001 3002.1 658.8310000000001 3001.6099999999997L653.6180000000002 2999.4599999999996C653.3440000000002 2999.3399999999997 653.1350000000002 2999.1199999999994 653.0440000000002 2998.8299999999995C652.9540000000002 2998.5499999999993 652.9920000000002 2998.2399999999993 653.1490000000002 2997.9899999999993L654.4652900000002 2995.8824799999993C654.5052500000002 2995.0088399999995 654.4915600000002 2991.6618399999993 652.2350000000002 2988.629999999999C651.2080000000002 2987.249999999999 649.9620000000002 2987.109999999999 648.5200000000002 2986.939999999999C646.5730000000002 2986.7199999999993 644.1510000000002 2986.4499999999994 642.9760000000002 2982.619999999999C641.1100000000002 2976.539999999999 642.9710000000002 2972.869999999999 643.0510000000003 2972.709999999999C643.3080000000002 2972.2199999999993 643.9160000000003 2972.0299999999993 644.4100000000003 2972.289999999999C644.9030000000004 2972.5499999999993 645.0930000000003 2973.149999999999 644.8350000000003 2973.649999999999C644.8230000000003 2973.669999999999 643.2950000000003 2976.7999999999993 644.9010000000003 2982.0299999999993C645.6880000000003 2984.5999999999995 646.9040000000003 2984.729999999999 648.7440000000003 2984.939999999999C650.3300000000003 2985.119999999999 652.3020000000002 2985.3399999999992 653.8510000000002 2987.419999999999C656.1892200000002 2990.567309999999 656.4915100000002 2993.925399999999 656.4901200000003 2995.464919999999C657.0752500000003 2995.617679999999 657.9507100000003 2995.799999999999 658.8130000000003 2995.799999999999C659.5720000000003 2995.799999999999 660.1800000000003 2995.6499999999987 660.5710000000004 2995.3799999999987C661.2610000000004 2994.759999999999 660.9360000000004 2989.9399999999987 659.8840000000004 2985.279999999999C659.8160000000004 2984.9799999999987 659.8890000000004 2984.659999999999 660.0790000000004 2984.429999999999C660.2710000000004 2984.189999999999 660.5600000000004 2984.049999999999 660.8660000000004 2984.049999999999H662.8940000000005C663.1730000000005 2974.1299999999987 656.7660000000004 2968.139999999999 656.6990000000004 2968.079999999999C656.4890000000004 2967.889999999999 656.3700000000005 2967.619999999999 656.3720000000004 2967.329999999999C656.3740000000004 2967.049999999999 656.4970000000004 2966.769999999999 656.7090000000004 2966.5899999999992L659.0230000000004 2964.5299999999993C659.4260000000004 2964.169999999999 660.0390000000003 2964.189999999999 660.4150000000004 2964.5799999999995L663.4560000000005 2967.7099999999996L668.6900000000005 2964.9599999999996C664.7420000000005 2956.4499999999994 656.2480000000005 2951.0099999999998 646.7980000000005 2951.0099999999998C633.4760000000005 2951.0099999999998 622.6380000000005 2961.83 622.6380000000005 2975.14C622.6380000000005 2981.27 624.8330000000005 2987.04 628.8170000000005 2991.41C628.8500000000005 2991.45 628.8810000000004 2991.49 628.9090000000004 2991.5299999999997L630.3110000000005 2993.6099999999997C630.5360000000005 2993.95 630.5400000000005 2994.39 630.3210000000005 2994.72C630.1030000000005 2995.06 629.7060000000005 2995.24 629.3060000000005 2995.1699999999996L625.6950000000005 2994.5499999999997L622.7100000000005 2996.2099999999996C623.6920000000005 2996.7499999999995 625.2300000000005 2996.9799999999996 627.7680000000005 2997.3399999999997C629.2490000000005 2997.5399999999995 631.0920000000004 2997.7999999999997 633.2390000000005 2998.2099999999996C637.3460000000005 2998.9999999999995 640.9450000000005 3000.7799999999997 643.3250000000005 3002.1999999999994C641.9820000000005 2999.419999999999 638.7160000000005 2995.859999999999 638.6830000000004 2995.8299999999995C638.4460000000005 2995.5699999999993 638.3580000000004 2995.2099999999996 638.4520000000005 2994.8699999999994C639.5240000000005 2991.0299999999993 642.9220000000005 2990.6199999999994 644.3340000000004 2990.6199999999994ZM659.508 2980.49C659.446 2980.49 659.383 2980.49 659.3190000000001 2980.47L655.263 2979.7C654.717 2979.6 654.359 2979.0699999999997 654.462 2978.52C654.567 2977.98 655.091 2977.62 655.64 2977.72L659.6949999999999 2978.49C660.242 2978.6 660.5999999999999 2979.1299999999997 660.496 2979.6699999999996C660.404 2980.1599999999994 659.982 2980.49 659.5079999999999 2980.49ZM657.246 2965.56C657.069 2965.56 656.89 2965.52 656.728 2965.42C656.1869999999999 2965.09 655.6229999999999 2964.8 655.05 2964.54C654.543 2964.31 654.319 2963.71 654.548 2963.2C654.777 2962.6899999999996 655.374 2962.47 655.881 2962.7C656.525 2962.99 657.159 2963.33 657.766 2963.6899999999996C658.242 2963.9799999999996 658.396 2964.5999999999995 658.1089999999999 2965.0699999999997C657.92 2965.39 657.5869999999999 2965.5599999999995 657.2459999999999 2965.5599999999995ZM631.304 2977.79C631.254 2977.79 631.204 2977.79 631.154 2977.7799999999997C630.604 2977.7 630.224 2977.18 630.306 2976.6299999999997C630.514 2975.24 630.883 2973.8799999999997 631.404 2972.5699999999997C631.609 2972.0499999999997 632.196 2971.7999999999997 632.712 2972.0099999999998C633.228 2972.22 633.48 2972.7999999999997 633.274 2973.3199999999997C632.811 2974.4799999999996 632.483 2975.6899999999996 632.298 2976.93C632.224 2977.43 631.794 2977.79 631.304 2977.79ZM634.226 2970.46C634.027 2970.46 633.826 2970.4 633.65 2970.28C633.194 2969.96 633.084 2969.3300000000004 633.4019999999999 2968.88C634.2059999999999 2967.73 635.145 2966.67 636.194 2965.73C636.6089999999999 2965.36 637.245 2965.39 637.615 2965.81C637.986 2966.22 637.95 2966.86 637.5360000000001 2967.23C636.6030000000001 2968.07 635.767 2969.01 635.052 2970.03C634.856 2970.3100000000004 634.544 2970.46 634.226 2970.46ZM640.111 2965.2C639.754 2965.2 639.409 2965.0099999999998 639.226 2964.6699999999996C638.959 2964.18 639.139 2963.5699999999997 639.627 2963.2999999999997C640.8599999999999 2962.6299999999997 642.1719999999999 2962.1 643.5279999999999 2961.7299999999996C644.0619999999999 2961.5899999999997 644.6179999999999 2961.8999999999996 644.7649999999999 2962.4299999999994C644.9119999999999 2962.9699999999993 644.5959999999999 2963.5199999999995 644.0599999999998 2963.669999999999C642.8539999999998 2963.999999999999 641.6879999999999 2964.4699999999993 640.5919999999999 2965.0699999999993C640.4389999999999 2965.1599999999994 640.2729999999999 2965.1999999999994 640.1109999999999 2965.1999999999994ZM651.681 2963.42C651.6170000000001 2963.42 651.553 2963.41 651.4870000000001 2963.4C650.267 2963.1600000000003 649.0010000000001 2963.06 647.7570000000001 2963.11C647.1690000000001 2963.1200000000003 646.734 2962.69 646.7130000000001 2962.1400000000003C646.6930000000001 2961.5800000000004 647.1270000000001 2961.11 647.6820000000001 2961.09C649.0790000000002 2961.04 650.5000000000001 2961.15 651.8730000000002 2961.42C652.4180000000001 2961.53 652.7750000000002 2962.06 652.6680000000001 2962.6C652.5750000000002 2963.08 652.1530000000001 2963.42 651.6810000000002 2963.42ZM631.451 2983.79C630.982 2983.79 630.561 2983.46 630.465 2982.98C630.326 2982.28 630.226 2981.57 630.168 2980.87C630.122 2980.31 630.534 2979.8199999999997 631.088 2979.7799999999997C631.641 2979.74 632.129 2980.1499999999996 632.174 2980.7C632.226 2981.33 632.316 2981.96 632.439 2982.58C632.549 2983.12 632.1959999999999 2983.66 631.651 2983.77C631.584 2983.78 631.5169999999999 2983.79 631.4509999999999 2983.79ZM635.173 2991.71C634.917 2991.71 634.66 2991.61 634.464 2991.41C634.0690000000001 2991.02 634.067 2990.3799999999997 634.4590000000001 2989.99C635.9630000000001 2988.47 637.692 2986.3799999999997 637.8610000000001 2985.64C638.1260000000001 2984.48 637.4320000000001 2982.17 636.8740000000001 2980.31C636.5560000000002 2979.25 636.2560000000001 2978.25 636.1250000000001 2977.46C635.3650000000001 2972.92 638.6800000000001 2968.9900000000002 642.3020000000001 2967.11C643.9170000000001 2966.27 645.7370000000001 2965.83 647.5660000000001 2965.83C650.4390000000002 2965.83 653.1870000000001 2966.9 655.3040000000002 2968.84C655.7140000000002 2969.2200000000003 655.7420000000002 2969.86 655.3650000000002 2970.27C654.9910000000002 2970.68 654.3530000000003 2970.71 653.9430000000002 2970.33C652.1990000000002 2968.73 649.9340000000002 2967.85 647.5660000000003 2967.85C646.0360000000003 2967.85 644.5770000000002 2968.2 643.2280000000003 2968.9C640.2540000000002 2970.44 637.5190000000003 2973.59 638.1110000000003 2977.13C638.2210000000003 2977.79 638.5040000000004 2978.73 638.8030000000003 2979.73C639.4610000000004 2981.92 640.2080000000003 2984.41 639.8240000000003 2986.09C639.4400000000003 2987.77 636.4770000000003 2990.81 635.8870000000003 2991.4100000000003C635.6900000000003 2991.61 635.4320000000002 2991.7100000000005 635.1730000000002 2991.7100000000005Z " fill="#5f94ff" fill-opacity="1" transform="matrix(1,0,0,1,-619,-2948)"></path></svg>