<svg id="SvgjsSvg1019" xmlns="http://www.w3.org/2000/svg" version="1.1" xmlns:xlink="http://www.w3.org/1999/xlink" xmlns:svgjs="http://svgjs.com/svgjs" width="47" height="56" viewBox="0 0 47 56"><title>icon</title><desc>Created with Avocode.</desc><defs id="SvgjsDefs1020"></defs><path id="SvgjsPath1021" d="M1178.93 2965H1140.53C1139.97 2965 1139.52 2964.55 1139.52 2964C1139.52 2963.45 1139.97 2963 1140.53 2963H1178.93C1179.49 2963 1179.94 2963.45 1179.94 2964C1179.94 2964.55 1179.49 2965 1178.93 2965ZM1178.93 2969H1140.53C1139.97 2969 1139.52 2968.55 1139.52 2968C1139.52 2967.45 1139.97 2967 1140.53 2967H1178.93C1179.49 2967 1179.94 2967.45 1179.94 2968C1179.94 2968.55 1179.49 2969 1178.93 2969ZM1180 2971V3008C1180 3011.86 1176.26 3015 1172.36 3015H1141.03C1137.1299999999999 3015 1134 3011.86 1134 3008V2967.16715C1133.97356 2966.93805 1133.96 2966.70546 1133.96 2966.4700000000003V2965.53C1133.96 2961.9300000000003 1137.13 2959 1141.03 2959H1179.44V2961H1141.03C1138.25 2961 1135.98 2962.96 1135.98 2965.53V2966.4700000000003C1135.98 2969.0400000000004 1138.25 2971.0000000000005 1141.03 2971.0000000000005ZM1141.03 2973C1139.0532 2973 1137.26395 2972.24723 1135.98 2971.03599V3009H1136.09C1136.23 3009.73 1136.56 3010.39 1136.99 3010.97V3011H1137.02C1137.94 3012.21 1139.3899999999999 3013 1141.03 3013H1172.36C1174.01 3013 1176.06 3012.21 1176.9699999999998 3011H1176.9999999999998V3010.97C1177.4299999999998 3010.39 1177.7499999999998 3009.73 1177.8999999999999 3009H1177.9999999999998V2973ZM1167.31 2993H1146.6799999999998C1145.1999999999998 2993 1143.9999999999998 2991.8 1143.9999999999998 2990.32V2981.6800000000003C1143.9999999999998 2980.2000000000003 1145.1999999999998 2979.0000000000005 1146.6799999999998 2979.0000000000005H1167.31C1168.79 2979.0000000000005 1169.99 2980.2000000000003 1169.99 2981.6800000000003V2990.32C1169.99 2991.8 1168.79 2993 1167.31 2993ZM1146.68 2981C1146.3 2981 1146 2981.31 1146 2981.68V2990.3199999999997C1146 2990.7 1146.3 2990.9999999999995 1146.68 2990.9999999999995H1167.3100000000002C1167.6900000000003 2990.9999999999995 1167.9900000000002 2990.6999999999994 1167.9900000000002 2990.3199999999997V2981.68C1167.9900000000002 2981.31 1167.6900000000003 2981 1167.3100000000002 2981ZM1160.74 3003H1152.66C1152.1000000000001 3003 1151.65 3002.55 1151.65 3002C1151.65 3001.45 1152.1000000000001 3001 1152.66 3001H1160.74C1161.3 3001 1161.75 3001.45 1161.75 3002C1161.75 3002.55 1161.3 3003 1160.74 3003ZM1158.72 3007H1154.68C1154.1200000000001 3007 1153.67 3006.55 1153.67 3006C1153.67 3005.45 1154.1200000000001 3005 1154.68 3005H1158.72C1159.28 3005 1159.73 3005.45 1159.73 3006C1159.73 3006.55 1159.28 3007 1158.72 3007Z " fill="#ff4b64" fill-opacity="1" transform="matrix(1,0,0,1,-1133,-2959)"></path></svg>