<svg id="SvgjsSvg1020" xmlns="http://www.w3.org/2000/svg" version="1.1" xmlns:xlink="http://www.w3.org/1999/xlink" xmlns:svgjs="http://svgjs.com/svgjs" width="20" height="18" viewBox="0 0 20 18"><title>Ellipse 3 copy 8</title><desc>Created with Avocode.</desc><defs id="SvgjsDefs1021"></defs><path id="SvgjsPath1022" d="M801 1497.66C801.23197 1497.66 801.46118 1497.6717600000002 801.68706 1497.69471C801.68702 1497.68648 801.687 1497.67824 801.687 1497.67C801.687 1495.0900000000001 803.772 1493 806.344 1493C808.9150000000001 1493 811 1495.09 811 1497.67C811 1499.90344 809.43752 1501.76968 807.34987 1502.2307500000002C807.56861 1502.8905300000001 807.687 1503.59623 807.687 1504.3300000000002C807.687 1508.0100000000002 804.693 1511.0000000000002 801 1511.0000000000002C797.307 1511.0000000000002 794.312 1508.0100000000002 794.312 1504.3300000000002C794.312 1503.59615 794.4304500000001 1502.8903900000003 794.6493 1502.2305600000002C792.5620700000001 1501.7691800000002 791 1499.9031400000001 791 1497.6700000000003C791 1495.0900000000004 793.085 1493.0000000000002 795.656 1493.0000000000002C798.228 1493.0000000000002 800.3119999999999 1495.0900000000001 800.3119999999999 1497.6700000000003C800.3119999999999 1497.6782800000003 800.31198 1497.6865500000004 800.3119399999999 1497.6948100000002C800.53815 1497.67179 800.7677 1497.66 800.9999999999999 1497.66Z " fill="#e5e2db" fill-opacity="1" transform="matrix(1,0,0,1,-791,-1493)"></path></svg>