<svg id="SvgjsSvg1000" xmlns="http://www.w3.org/2000/svg" version="1.1" xmlns:xlink="http://www.w3.org/1999/xlink" xmlns:svgjs="http://svgjs.com/svgjs" width="230" height="230" viewBox="0 0 230 230"><title>Ellipse 1</title><desc>Created with Avocode.</desc><defs id="SvgjsDefs1001"><filter id="SvgjsFilter1008" width="200%" height="200%" x="-50%" y="-50%"><feMorphology id="SvgjsFeMorphology1009" operator="dilate" radius="0" result="SvgjsFeMorphology1009Out" in="SourceGraphic"></feMorphology><feOffset id="SvgjsFeOffset1010" dx="0" dy="20" result="SvgjsFeOffset1010Out" in="SvgjsFeMorphology1009Out"></feOffset><feGaussianBlur id="SvgjsFeGaussianBlur1011" stdDeviation="25 " result="SvgjsFeGaussianBlur1011Out" in="SvgjsFeOffset1010Out"></feGaussianBlur><feComposite id="SvgjsFeComposite1012" in="SvgjsFeGaussianBlur1011Out" in2="SourceAlpha" operator="out" result="SvgjsFeComposite1012Out"></feComposite></filter><filter id="SvgjsFilter1015" width="200%" height="200%" x="-50%" y="-50%"><feMorphology id="SvgjsFeMorphology1016" operator="dilate" radius="0" result="SvgjsFeMorphology1016Out" in="SourceGraphic"></feMorphology><feOffset id="SvgjsFeOffset1017" dx="0" dy="20" result="SvgjsFeOffset1017Out" in="SvgjsFeMorphology1016Out"></feOffset><feGaussianBlur id="SvgjsFeGaussianBlur1018" stdDeviation="25 " result="SvgjsFeGaussianBlur1018Out" in="SvgjsFeOffset1017Out"></feGaussianBlur><feComposite id="SvgjsFeComposite1019" in="SvgjsFeGaussianBlur1018Out" in2="SourceAlpha" operator="out" result="SvgjsFeComposite1019Out"></feComposite></filter><linearGradient id="SvgjsLinearGradient1023" gradientUnits="userSpaceOnUse" x1="1207.2457351945704" y1="3628" x2="1270.7542648054293" y2="3738"><stop id="SvgjsStop1024" stop-opacity="0" stop-color="#000000" offset="0"></stop><stop id="SvgjsStop1025" stop-opacity="0.1" stop-color="#000000" offset="0.99"></stop><stop id="SvgjsStop1026" stop-opacity="0.1" stop-color="#000000" offset="1"></stop></linearGradient></defs><path id="SvgjsPath1007" d="M1239 3618C1274.9 3618 1304 3647.1 1304 3683C1304 3718.9 1274.9 3748 1239 3748C1203.1 3748 1174 3718.9 1174 3683C1174 3647.1 1203.1 3618 1239 3618Z " fill="#000000" fill-opacity="0.4" filter="url(#SvgjsFilter1008)" transform="matrix(1,0,0,1,-1124,-3588)"></path><path id="SvgjsPath1013" d="M1239 3618C1274.9 3618 1304 3647.1 1304 3683C1304 3718.9 1274.9 3748 1239 3748C1203.1 3748 1174 3718.9 1174 3683C1174 3647.1 1203.1 3618 1239 3618Z " fill="#ffffff" fill-opacity="1" transform="matrix(1,0,0,1,-1124,-3588)"></path><path id="SvgjsPath1014" d="M1239 3628C1269.38 3628 1294 3652.62 1294 3683C1294 3713.38 1269.38 3738 1239 3738C1208.62 3738 1184 3713.38 1184 3683C1184 3652.62 1208.62 3628 1239 3628Z " fill="#000000" fill-opacity="0.4" filter="url(#SvgjsFilter1015)" transform="matrix(1,0,0,1,-1124,-3588)"></path><path id="SvgjsPath1020" d="M1239 3628C1269.38 3628 1294 3652.62 1294 3683C1294 3713.38 1269.38 3738 1239 3738C1208.62 3738 1184 3713.38 1184 3683C1184 3652.62 1208.62 3628 1239 3628Z " fill="#ffffff" fill-opacity="1" transform="matrix(1,0,0,1,-1124,-3588)"></path><path id="SvgjsPath1021" d="M1239 3628C1269.38 3628 1294 3652.62 1294 3683C1294 3713.38 1269.38 3738 1239 3738C1208.62 3738 1184 3713.38 1184 3683C1184 3652.62 1208.62 3628 1239 3628Z " fill="#ffffff" fill-opacity="1" transform="matrix(1,0,0,1,-1124,-3588)"></path><path id="SvgjsPath1022" d="M1239 3628C1269.38 3628 1294 3652.62 1294 3683C1294 3713.38 1269.38 3738 1239 3738C1208.62 3738 1184 3713.38 1184 3683C1184 3652.62 1208.62 3628 1239 3628Z " fill="url(#SvgjsLinearGradient1023)" transform="matrix(1,0,0,1,-1124,-3588)"></path><path id="SvgjsPath1027" d="M1234 3669L1250 3683L1234 3697Z " fill="#ff4b64" fill-opacity="1" transform="matrix(1,0,0,1,-1124,-3588)"></path></svg>