<svg id="SvgjsSvg1031" xmlns="http://www.w3.org/2000/svg" version="1.1" xmlns:xlink="http://www.w3.org/1999/xlink" xmlns:svgjs="http://svgjs.com/svgjs" width="257" height="180" viewBox="0 0 257 180"><title>Rounded Rectangle 11 copy</title>
  <path id="line1" d="M261 3056C261.552 3056 262 3056.45 262 3057V3079H284C284.552 3079 285 3079.45 285 3080C285 3080.55 284.552 3081 284 3081H261C260.448 3081 260 3080.55 260 3080V3057C260 3056.45 260.448 3056 261 3056Z " fill="#e5e2db" fill-opacity="1" transform="matrix(1,0,0,1,-260,-2901)"></path>
  <path id="line2" d="M262 2925C262 2925.55 261.552 2926 261 2926C260.448 2926 260 2925.55 260 2925V2902C260 2901.45 260.448 2901 261 2901H284C284.552 2901 285 2901.45 285 2902C285 2902.55 284.552 2903 284 2903H262Z " fill="#e5e2db" fill-opacity="1" transform="matrix(1,0,0,1,-260,-2901)">
  </path>
  <path id="line3" d="M516 3056C516.552 3056 517 3056.45 517 3057V3080C517 3080.55 516.552 3081 516 3081H493C492.448 3081 492 3080.55 492 3080C492 3079.45 492.448 3079 493 3079L515 3079V3057C515 3056.45 515.448 3056 516 3056Z " fill="#e5e2db" fill-opacity="1" transform="matrix(1,0,0,1,-260,-2901)">
  </path>
  <path id="line4" d="M517 2925C517 2925.55 516.552 2926 516 2926C515.448 2926 515 2925.55 515 2925L515 2903H493C492.448 2903 492 2902.55 492 2902C492 2901.45 492.448 2901 493 2901H516C516.552 2901 517 2901.45 517 2902Z " fill="#e5e2db" fill-opacity="1" transform="matrix(1,0,0,1,-260,-2901)">
  </path>
</svg>
